<svg height="496pt" viewBox="0 0 496 496" width="496pt" xmlns="http://www.w3.org/2000/svg"><path d="m464 358.144531v-60.28125l-22.527344-6.039062c-.886718-2.382813-1.886718-4.769531-2.984375-7.136719l11.671875-20.230469-42.609375-42.609375-20.230469 11.671875c-2.367187-1.09375-4.753906-2.09375-7.136718-2.984375l-6.039063-22.535156h-60.28125l-6.039062 22.527344c-2.382813.886718-4.769531 1.886718-7.136719 2.984375l-20.230469-11.671875-42.609375 42.609375 11.664063 20.230469c-1.328125 2.863281-2.503907 5.761718-3.519531 8.617187v2.703125h42.648437c11.070313-19.113281 31.695313-32 55.367187-32 35.34375 0 64 28.65625 64 64s-28.65625 64-64 64c-23.671874 0-44.296874-12.886719-55.367187-32h-42.648437v2.695312c1.015624 2.855469 2.191406 5.753907 3.519531 8.617188l-11.664063 20.230469 42.609375 42.609375 20.230469-11.671875c2.367188 1.09375 4.753906 2.09375 7.136719 2.984375l6.03125 22.535156h60.28125l6.039062-22.527344c2.382813-.886718 4.769531-1.886718 7.136719-2.984375l20.230469 11.671875 42.609375-42.609375-11.671875-20.230469c1.09375-2.367187 2.09375-4.753906 2.984375-7.136718zm0 0" fill="#f0bc5e"/><path d="m432 97.976562v-33.976562h8c13.230469 0 24-10.769531 24-24v-16c0-13.230469-10.769531-24-24-24h-112c-13.230469 0-24 10.769531-24 24v16c0 13.230469 10.769531 24 24 24h8v33.976562c-21.199219 6.839844-38.65625 20.878907-49.960938 38.976563-1.878906-3.753906-3.824218-7.472656-5.984374-11.066406l-24.054688-40.101563v-21.785156h16v-40c0-13.230469-10.769531-24-24-24h-96c-13.230469 0-24 10.769531-24 24v40h16v21.785156l-24.054688 40.09375c-15.664062 26.113282-23.945312 55.992188-23.945312 86.441406v30.070313c0 15.25 1.34375 30.546875 3.863281 45.617187h-75.863281c-13.230469 0-24 10.769532-24 24v32c0 13.230469 10.769531 24 24 24h87.34375c-1.398438 10.960938-5.503906 21.535157-12.144531 30.398438-7.214844 9.617188-11.199219 21.546875-11.199219 33.59375v8c0 17.527344 8.375 34.28125 22.398438 44.800781 9.632812 7.222657 21.5625 11.199219 33.601562 11.199219h3.160156c19.273438 0 37.253906-8.894531 48.945313-24h7.804687c11.683594 15.105469 29.675782 24 48.945313 24h3.144531c12.039062 0 23.976562-3.976562 33.609375-11.199219.824219-.625 1.582031-1.320312 2.375-1.984375 9.742187 8.207032 22.304687 13.183594 36.015625 13.183594h112c30.878906 0 56-25.128906 56-56v-254.03125c0-40.410156-26.015625-75.738281-64-87.992188zm-112-57.976562v-16c0-4.40625 3.59375-8 8-8h112c4.40625 0 8 3.59375 8 8v16c0 4.40625-3.59375 8-8 8h-112c-4.40625 0-8-3.59375-8-8zm25.945312 71.761719 6.054688-1.515625v-46.246094h64v46.246094l6.054688 1.515625c30.839843 7.710937 53.210937 33.398437 57.234374 64.238281h-190.578124c4.023437-30.832031 26.394531-56.527344 57.234374-64.238281zm-201.945312-87.761719c0-4.40625 3.59375-8 8-8h96c4.40625 0 8 3.59375 8 8v24h-112zm-10.335938 110.121094 26.335938-43.90625v-26.214844h80v26.214844l26.335938 43.90625c4.160156 6.925781 7.6875 14.261718 10.695312 21.773437-3.246094 9.480469-5.03125 19.601563-5.03125 30.074219v38.03125h-160v-11.679688c0-27.542968 7.488281-54.585937 21.664062-78.199218zm-37.664062 217.878906h-16v-48h16zm16-16h176v16h-176zm223.871094-8-31.871094 18.214844v-36.429688zm32.257812 0-65.578125-37.472656c10.511719-11.582032 25.511719-18.527344 41.449219-18.527344 30.878906 0 56 25.128906 56 56s-25.121094 56-56 56c-15.9375 0-30.9375-6.945312-41.449219-18.527344zm-80.128906-24v16h-176v-16zm-272 40v-32c0-4.414062 3.59375-8 8-8h40v48h-40c-4.40625 0-8-3.585938-8-8zm424 136h-112c-22.054688 0-40-17.945312-40-40v-10.199219l-7.542969 4.351563-8.457031-8.449219v14.296875c0 11.375 3.433594 21.960938 9.289062 30.808594-.457031.375-.816406.839844-1.289062 1.191406-6.871094 5.160156-15.398438 8-24 8h-3.160156c-15.375 0-29.65625-7.640625-38.183594-20.441406l-2.375-3.558594h-24.5625l-2.375 3.558594c-8.527344 12.800781-22.808594 20.441406-38.183594 20.441406h-3.160156c-8.601562 0-17.128906-2.839844-24-8-10.015625-7.511719-16-19.480469-16-32v-8c0-2.695312.375-5.367188.921875-8h165.375l-16-16h-142.296875c8.710938-11.625 14.0625-25.59375 15.535156-40h156.777344c13.304688 19.792969 35.671875 32 59.6875 32 39.695312 0 72-32.296875 72-72s-32.304688-72-72-72c-24.007812 0-46.375 12.207031-59.6875 32h-168.199219c-2.679687-15.046875-4.113281-30.351562-4.113281-45.617188v-2.382812h150.296875l18.160156-18.160156 7.542969 4.359375v-34.199219h192v224h-32v16h32v8c0 22.054688-17.945312 40-40 40zm0 0"/></svg>