<svg height="498pt" viewBox="-25 0 498 498.472" width="498pt" xmlns="http://www.w3.org/2000/svg"><g fill="#f0bc5e"><path d="m360.238281 256h64v88h-64zm0 0"/><path d="m271.292969 408h-23.054688c-4.417969 0-8-3.585938-8-8s3.582031-8 8-8h7.054688c11.609375 0 22.273437-7.824219 24.480469-19.214844 2.976562-15.320312-8.738282-28.785156-23.535157-28.785156h-64v32.007812c0 8.832032-7.160156 15.992188-15.992187 15.992188h-32.015625c-8.832031 0-15.992188-7.160156-15.992188-15.992188v-8.007812h-103.058593c-11.605469 0-22.269532 7.824219-24.480469 19.214844-2.972657 15.320312 8.738281 28.785156 23.539062 28.785156h72c4.414063 0 8 3.585938 8 8v31.054688c0 11.609374 7.824219 22.273437 19.214844 24.480468 15.320313 2.976563 28.785156-8.734375 28.785156-23.535156v-16c0-4.414062 3.582031-8 8-8 4.414063 0 8 3.585938 8 8v31.054688c0 11.609374 7.824219 22.273437 19.214844 24.480468 15.320313 2.976563 28.785156-8.734375 28.785156-23.535156v-8c0-4.414062 3.582031-8 8-8h48c14.796875 0 26.511719-13.464844 23.535157-28.785156-2.214844-11.390625-12.878907-19.214844-24.480469-19.214844zm0 0"/><path d="m160.238281 246.894531-54.03125-84.894531c-6.523437-10.257812-9.96875-22.097656-9.96875-34.230469 0-35.167969 28.597657-63.769531 63.765625-63.769531 35.632813 0 64.234375 28.601562 64.234375 63.769531 0 12.140625-3.449219 23.972657-9.96875 34.230469zm0 0"/></g><path d="m400.238281 40c0 4.417969-3.582031 8-8 8s-8-3.582031-8-8 3.582031-8 8-8 8 3.582031 8 8zm0 0"/><path d="m416.238281 387.96875v-35.96875h16v-312c0-22.054688-17.945312-40-40-40-22.058593 0-40 17.945312-40 40v312h16v35.96875c-18.769531 7.808594-32 26.320312-32 47.886719 0 9.410156 2.550781 18.632812 7.390625 26.679687l21.054688 35.089844 6.089844-2.03125c.769531-.25 12.527343-4.355469 20.960937-16.953125 9.640625 10.792969 20.34375 16.222656 20.925781 16.519531l6.625 3.3125 21.558594-35.9375c4.839844-8.046875 7.394531-17.277344 7.394531-26.6875 0-21.558594-13.234375-40.070312-32-47.878906zm-48-67.96875h32v-16h-32v-264c0-13.230469 10.765625-24 24-24 13.230469 0 24 10.769531 24 24v232h-32v16h32v48h-48zm32 32v32.191406c-1.28125-.085937-2.554687-.191406-3.847656-.191406h-8.296875c-1.304688 0-2.578125.105469-3.847656.191406v-32.191406zm26.886719 102.296875-13.535156 22.566406c-4.410156-3.199219-10.304688-8.3125-14.769532-15.191406.90625-4.085937 1.417969-8.625 1.417969-13.671875h-16c0 16.648438-7.609375 25.273438-13.082031 29.320312l-13.816406-23.023437c-3.335938-5.5625-5.101563-11.9375-5.101563-18.449219 0-19.757812 16.085938-35.847656 35.847657-35.847656h8.296874c19.765626 0 35.855469 16.089844 35.855469 35.847656 0 6.511719-1.769531 12.886719-5.113281 18.449219zm0 0"/><path d="m40.238281 40 43.65625 262.566406c3.054688 18.328125 18.109375 31.746094 36.34375 33.152344v40.28125c0 13.230469 10.765625 24 24 24h32c13.230469 0 24-10.769531 24-24v-40.28125c18.230469-1.40625 33.285157-14.824219 36.34375-33.152344l43.542969-261.253906.113281-41.3125h-240zm144 336c0 4.414062-3.585937 8-8 8h-32c-4.417969 0-8-3.585938-8-8v-8h48zm0-24h-48v-16h48zm36.558594-52.054688c-1.9375 11.613282-11.886719 20.054688-23.671875 20.054688h-73.785156c-11.78125 0-21.734375-8.441406-23.671875-20.054688l-1.984375-11.945312h125.105468zm4.664063-27.945312h-130.449219l-37.335938-224h205.121094zm22.777343-256h16v16h-16zm-32 0h16v16h-16zm-32 0h16v16h-16zm-32 0h16v16h-16zm-32 0h16v16h-16zm-32 0h16v16h-16zm-32 0h16v16h-16zm0 0"/></svg>