<svg height="496pt" viewBox="0 0 496 496" width="496pt" xmlns="http://www.w3.org/2000/svg"><path d="m219.199219 321.601562c-12.085938-16.113281-31.054688-25.601562-51.199219-25.601562s-39.113281 9.488281-51.199219 25.601562l-24.816406 33.09375.609375.570313c1.664062 1 3.167969 2.109375 4.6875 3.207031 5.824219 4.246094 13.078125 9.527344 26.671875 9.527344 13.597656 0 20.863281-5.28125 26.703125-9.527344 5.167969-3.761718 8.894531-6.472656 17.296875-6.472656 8.40625 0 12.136719 2.710938 17.304687 6.472656 5.847657 4.246094 13.109376 9.527344 26.71875 9.527344 13.609376 0 20.878907-5.289062 26.71875-9.527344 1.519532-1.113281 3.039063-2.226562 4.703126-3.226562l.609374-.566406zm0 0" fill="#f0bc5e"/><path d="m455.457031 80.640625c.34375-2.863281.542969-5.746094.542969-8.640625 0-39.703125-32.304688-72-72-72-28.425781 0-53.777344 16.550781-65.398438 41.9375-4.753906-1.289062-9.632812-1.9375-14.601562-1.9375-25.296875 0-46.921875 16.640625-53.753906 40.375-23.757813 2.855469-42.246094 23.105469-42.246094 47.625 0 5.535156.984375 10.910156 2.785156 16h-170.785156c-22.054688 0-40 17.945312-40 40v240c0 22.054688 17.945312 40 40 40h257.609375v-16h-257.609375c-13.230469 0-24-10.769531-24-24v-240c0-13.230469 10.769531-24 24-24h320c13.230469 0 24 10.769531 24 24v80h16v-80c0-2.734375-.28125-5.414062-.808594-8h48.808594c26.472656 0 48-21.527344 48-48 0-23.929688-17.617188-43.761719-40.542969-47.359375zm-7.457031 79.359375h-56v.246094c-7.296875-9.796875-18.871094-16.246094-32-16.246094h-131.632812c-2.816407-4.855469-4.367188-10.289062-4.367188-16 0-17.648438 14.351562-32 32-32s32 14.351562 32 32h16c0-22.726562-15.886719-41.769531-37.128906-46.710938 5.898437-15.015624 20.359375-25.289062 37.128906-25.289062 5.527344 0 10.921875 1.136719 16.015625 3.359375l8.0625 3.527344 2.746094-8.367188c7.566406-23.03125 28.9375-38.519531 53.175781-38.519531 30.878906 0 56 25.128906 56 56 0 2.976562-.3125 5.929688-.777344 8.839844-22.285156 4.144531-39.222656 23.695312-39.222656 47.160156h16c0-17.648438 14.351562-32 32-32s32 14.351562 32 32-14.351562 32-32 32zm0 0"/><path d="m32 432h256.039062v-16h-232.039062l67.199219-89.601562c10.519531-14.023438 27.273437-22.398438 44.800781-22.398438s34.28125 8.375 44.800781 22.398438l44.800781 59.738281 12.796876-9.59375-44.796876-59.734375c-13.53125-18.039063-35.058593-28.808594-57.601562-28.808594s-44.070312 10.769531-57.601562 28.808594l-62.398438 83.199218v-208.007812h304v73.121094h16v-89.121094h-336zm0 0"/><path d="m64 248c0 22.054688 17.945312 40 40 40s40-17.945312 40-40-17.945312-40-40-40-40 17.945312-40 40zm64 0c0 13.230469-10.769531 24-24 24s-24-10.769531-24-24 10.769531-24 24-24 24 10.769531 24 24zm0 0"/><path d="m256 224c-17.609375 0-34.222656 8.550781-44.457031 22.878906l-33.367188 46.714844 13.015625 9.292969 33.367188-46.710938c7.242187-10.128906 18.992187-16.175781 31.441406-16.175781s24.199219 6.046875 31.441406 16.175781l20.085938 28.121094 13.015625-9.296875-20.078125-28.121094c-10.242188-14.328125-26.855469-22.878906-44.464844-22.878906zm0 0"/><path d="m496 406.144531v-60.28125l-22.527344-6.039062c-.886718-2.382813-1.886718-4.769531-2.984375-7.136719l11.671875-20.230469-42.609375-42.609375-20.230469 11.671875c-2.367187-1.09375-4.753906-2.09375-7.136718-2.984375l-6.039063-22.535156h-60.28125l-6.039062 22.527344c-2.382813.886718-4.769531 1.886718-7.136719 2.984375l-20.230469-11.671875-42.609375 42.609375 11.671875 20.230469c-1.09375 2.367187-2.09375 4.753906-2.984375 7.136718l-22.535156 6.039063v60.28125l22.527344 6.039062c.886718 2.382813 1.886718 4.769531 2.984375 7.136719l-11.671875 20.230469 42.609375 42.609375 20.230469-11.671875c2.367187 1.09375 4.753906 2.09375 7.136718 2.984375l6.039063 22.535156h60.28125l6.039062-22.527344c2.382813-.886718 4.769531-1.886718 7.136719-2.984375l20.230469 11.671875 42.609375-42.609375-11.671875-20.230469c1.09375-2.367187 2.09375-4.753906 2.984375-7.136718zm-120 1.855469c-17.671875 0-32-14.328125-32-32s14.328125-32 32-32 32 14.328125 32 32-14.328125 32-32 32zm0 0" fill="#f0bc5e"/><path d="m376 448c-39.695312 0-72-32.296875-72-72s32.304688-72 72-72 72 32.296875 72 72-32.304688 72-72 72zm0-128c-30.878906 0-56 25.128906-56 56s25.121094 56 56 56 56-25.128906 56-56-25.121094-56-56-56zm0 0"/><path d="m376 416c-22.054688 0-40-17.945312-40-40s17.945312-40 40-40 40 17.945312 40 40-17.945312 40-40 40zm0-64c-13.230469 0-24 10.769531-24 24s10.769531 24 24 24 24-10.769531 24-24-10.769531-24-24-24zm0 0"/></svg>