<svg height="496pt" viewBox="-64 0 496 496" width="496pt" xmlns="http://www.w3.org/2000/svg"><path d="m245.601562 301.921875-.402343 2.078125-53.199219 152h-32l56-160zm0 0" fill="#f0bc5e"/><path d="m176 80c-52.9375 0-96 43.0625-96 96v136h5.855469c3.503906-2.433594 7.472656-4.265625 11.871093-5.144531l54.273438-10.855469v-24.71875c-22.695312-3.816406-40-23.503906-40-47.28125v-36c0-28.71875 23.28125-52 52-52s52 23.28125 52 52v108l54.273438 10.855469c.597656.121093 1.140624.351562 1.726562.503906v-131.359375c0-52.9375-43.0625-96-96-96zm0 0" fill="#f0bc5e"/><path d="m0 0v496h368v-496zm324.6875 32h-281.375l-16-16h313.375zm-164.6875 248h32v-16h-32c-22.054688 0-40-17.945312-40-40v-36c0-24.257812 19.734375-44 44-44s44 19.742188 44 44v106.640625l-14.472656 41.359375h-62c2.921875-6.34375 4.472656-13.230469 4.472656-20.304688v-8.335937l24-4.800781zm-40 35.695312c0 6.472657-1.894531 12.730469-5.480469 18.105469-6.878906 10.320313-10.519531 22.335938-10.519531 34.734375v.832032c0 15.59375 5.65625 30.3125 16 41.816406v36.816406h-40v-109.769531c0-11.40625 8.113281-21.300781 19.296875-23.535157l20.703125-4.136718zm13.65625 86.648438c-8.808594-8.808594-13.65625-20.511719-13.65625-32.96875v-.832031c0-5.710938 1.152344-11.269531 3.160156-16.535157h64.769532l-33.601563 96h-18.328125v-43.3125zm87.589844-97.136719 47.457031 9.488281c11.183594 2.234376 19.296875 12.136719 19.296875 23.535157v109.769531h-116.726562zm50.601562-6.199219-47.847656-9.566406v-101.441406c0-33.089844-26.910156-60-60-60s-60 26.910156-60 60v36c0 25.3125 16.894531 46.734375 40 53.640625v11.792969l-47.847656 9.566406c-18.632813 3.734375-32.152344 20.230469-32.152344 39.230469v109.769531h-16v-400h272v400h-16v-109.769531c0-19-13.519531-35.496094-32.152344-39.222657zm-239.847656-255.695312v409.375l-16 16v-441.375zm11.3125 420.6875h281.375l16 16h-313.375zm292.6875-11.3125v-409.375l16-16v441.375zm0 0"/></svg>