<svg height="496pt" viewBox="0 0 496 496" width="496pt" xmlns="http://www.w3.org/2000/svg"><g fill="#f0bc5e"><path d="m376 120c0 22.089844-17.910156 40-40 40s-40-17.910156-40-40 17.910156-40 40-40 40 17.910156 40 40zm0 0"/><path d="m34.761719 260.921875c-5.65625 13.664063-4.792969 29.222656 2.679687 42.15625 7.460938 12.929687 20.496094 21.464844 35.167969 23.402344 1.941406 14.65625 10.480469 27.695312 23.398437 35.167969 3.878907 2.238281 8.046876 3.855468 12.335938 4.910156l19.65625-6.558594v-32.089844c-15.335938-11.535156-26.433594-28.414062-30.390625-47.910156h-1.609375c-17.671875 0-32-14.328125-32-32s14.328125-32 32-32v-24h8c25.96875 0 51.230469-8.425781 72-24 20.769531 15.574219 46.03125 24 72 24h8v24c17.671875 0 32 14.328125 32 32s-14.328125 32-32 32h-1.609375c-3.957031 19.503906-15.054687 36.375-30.390625 47.910156v32.089844l19.679688 6.558594c4.28125-1.0625 8.441406-2.679688 12.320312-4.917969 12.929688-7.472656 21.457031-20.503906 23.398438-35.167969 14.664062-1.9375 27.707031-10.472656 35.167968-23.402344 7.472656-12.925781 8.328125-28.496093 2.679688-42.160156 6.722656-5.167968 12.011718-12.015625 15.21875-19.839844l.054687-1.429687c-16.015625-1.753906-28.519531-15.160156-28.519531-31.640625-8.839844 0-16-7.160156-16-16 0-6.625 4.03125-12.3125 9.769531-14.742188-2.699219-5.554687-6.152343-10.792968-10.265625-15.554687-11.695312-13.550781-17.808594-32.046875-14.710937-51.96875.351562-2.269531 1.023437-4.429687 1.621093-6.613281-4.269531-7.570313-10.605468-14.097656-18.421874-18.609375-12.921876-7.457031-28.496094-8.320313-42.160157-2.679688-9-11.71875-22.902343-18.753906-37.832031-18.753906s-28.832031 7.035156-37.839844 18.753906c-13.679687-5.640625-29.230468-4.777343-42.160156 2.679688-12.929688 7.472656-21.464844 20.511719-23.398438 35.167969-14.664062 1.9375-27.707031 10.472656-35.167968 23.398437-7.472656 12.929687-8.335938 28.488281-2.679688 42.152344-11.722656 9.007812-18.753906 22.921875-18.753906 37.847656 0 14.921875 7.03125 28.832031 18.761719 37.84375zm0 0"/><path d="m334.808594 190.441406 1.191406 1.558594c-.078125-.542969-.511719-1.0625-1.191406-1.558594zm0 0"/></g><path d="m176 312c17.648438 0 32-14.351562 32-32h-16c0 8.824219-7.175781 16-16 16s-16-7.175781-16-16h-16c0 17.648438 14.351562 32 32 32zm0 0"/><path d="m328 0h16v32h-16zm0 0"/><path d="m245.492188 40.804688 11.3125-11.3125 22.628906 22.628906-11.3125 11.3125zm0 0"/><path d="m394.339844 52.125 22.628906-22.628906 11.3125 11.3125-22.625 22.628906zm0 0"/><path d="m496 334.207031v-60.421875l-29.832031-7.640625c-2.335938-7.558593-5.351563-14.863281-9-21.800781l15.679687-26.472656-42.71875-42.726563-26.480468 15.6875c-4.121094-2.167969-8.417969-4.046875-12.777344-5.769531-1.191406-3.925781-3.277344-7.453125-6.152344-10.246094 1.671875-2.65625 3.496094-5.214844 5.570312-7.585937 11.414063-13.078125 17.710938-29.855469 17.710938-47.230469 0-20.449219-8.742188-40-23.984375-53.648438-15.230469-13.640624-35.726563-20.183593-56.199219-17.894531-31.585937 3.503907-58.046875 28.757813-62.921875 60.054688-3.285156 21.136719 2.753907 42.433593 16.5625 58.425781 2.160157 2.503906 4.039063 5.183594 5.773438 7.949219-4.453125 4.351562-7.230469 10.410156-7.230469 17.113281 0 10.664062 7.039062 19.625 16.679688 22.734375 3.222656 18.851563 19.578124 33.265625 39.320312 33.265625s36.097656-14.414062 39.320312-33.265625c6.433594-2.078125 11.679688-6.71875 14.464844-12.796875 3.429688 1.535156 6.78125 3.191406 10.007813 5.046875l4.046875 2.335937 23.746094-14.074218 25.15625 25.167968-14.0625 23.746094 2.335937 4.054688c4.777344 8.28125 8.480469 17.242187 11.007813 26.632812l1.214843 4.511719 26.761719 6.847656v35.578125l-26.761719 6.847656-1.214843 4.511719c-2.527344 9.390625-6.230469 18.351563-11.007813 26.632813l-2.335937 4.054687 14.0625 23.742188-25.15625 25.167969-23.746094-14.070313-4.046875 2.335937c-8.289063 4.777344-17.257813 8.480469-26.648438 11.007813l-4.511719 1.214844-6.839843 26.769531h-9.792969v-5.40625c0-24.144531-15.382812-45.496094-38.289062-53.121094l-81.710938-27.242187v-22.40625c13.6875-11.320313 23.824219-26.726563 28.710938-44.304688 19.816406-2.359375 35.289062-19.078125 35.289062-39.519531 0-19.3125-13.769531-35.472656-32-39.191406v-24.808594h-16c-24.070312 0-47.9375-7.953125-67.199219-22.398438l-4.800781-3.601562-4.800781 3.601562c-19.261719 14.445313-43.128907 22.398438-67.199219 22.398438h-16v24.808594c-18.230469 3.71875-32 19.878906-32 39.191406 0 20.441406 15.472656 37.160156 35.289062 39.519531 4.886719 17.578125 15.023438 32.984375 28.710938 44.304688v22.40625l-81.703125 27.25c-22.914063 7.625-38.296875 28.976562-38.296875 53.113281v61.40625h352v-40h22.207031l7.640625-29.832031c7.558594-2.335938 14.863282-5.351563 21.792969-9.007813l26.480469 15.6875 42.71875-42.726562-15.679688-26.472656c3.65625-6.929688 6.664063-14.234376 9-21.800782zm-202.433594-177.726562c-10.894531-12.617188-15.460937-28.785157-12.855468-45.511719 3.777343-24.28125 24.335937-43.878906 48.863281-46.601562 16.21875-1.824219 31.746093 3.152343 43.769531 13.90625 11.855469 10.605468 18.65625 25.824218 18.65625 41.726562 0 13.503906-4.886719 26.535156-13.777344 36.71875-3.101562 3.554688-5.71875 7.457031-8.109375 11.496094-.714843-.0625-1.394531-.214844-2.113281-.214844h-24v-25.472656c9.289062-3.3125 16-12.113282 16-22.527344 0-13.230469-10.769531-24-24-24s-24 10.769531-24 24c0 10.414062 6.710938 19.214844 16 22.527344v25.472656h-24c-.753906 0-1.457031.152344-2.183594.222656-2.425781-4.109375-5.097656-8.085937-8.25-11.742187zm34.433594-36.480469c0-4.414062 3.59375-8 8-8s8 3.585938 8 8-3.59375 8-8 8-8-3.585938-8-8zm8 112c-10.414062 0-19.214844-6.710938-22.527344-16h45.046875c-3.304687 9.289062-12.105469 16-22.519531 16zm32-32h-64c-4.40625 0-8-3.585938-8-8s3.59375-8 8-8h64c4.40625 0 8 3.585938 8 8s-3.59375 8-8 8zm-123.777344 175.175781-23.664062 52.921875-32-21.335937 37.601562-37.609375zm3.777344-143.175781c0 4.414062-3.59375 8-8 8h-32c-4.40625 0-8-3.585938-8-8v-8h48zm32 16c0 10.535156-6.871094 19.414062-16.335938 22.632812.167969-2.199218.335938-4.394531.335938-6.632812v-38.527344c9.289062 3.3125 16 12.113282 16 22.527344zm-104-70.167969c21.113281 14.335938 46.457031 22.167969 72 22.167969v8h-64v16h-16v-16h-64v-8c25.542969 0 50.886719-7.832031 72-22.167969zm-72 46.167969h48v8c0 4.414062-3.59375 8-8 8h-32c-4.40625 0-8-3.585938-8-8zm-32 24c0-10.414062 6.710938-19.214844 16-22.527344v38.527344c0 2.238281.167969 4.433594.335938 6.632812-9.464844-3.21875-16.335938-12.097656-16.335938-22.632812zm32 16v-9.472656c2.511719.898437 5.183594 1.472656 8 1.472656h32c10.414062 0 19.214844-6.710938 22.527344-16h18.953125c3.3125 9.289062 12.113281 16 22.527343 16h32c2.816407 0 5.488282-.574219 8-1.472656v9.472656c0 39.703125-32.304687 72-72 72-39.695312 0-72.007812-32.296875-72.007812-72zm72 88c14.40625 0 27.984375-3.550781 40-9.710938v14.398438l-40 40-40-40v-14.398438c12.015625 6.160157 25.59375 9.710938 40 9.710938zm-50.160156 17.152344 37.601562 37.609375-32 21.335937-23.664062-52.921875zm210.160156 110.847656h-48v-56h-16v56h-192v-56h-16v56h-48v-45.40625c0-17.242188 10.992188-32.496094 27.351562-37.945312l49.167969-16.390626 32.039063 71.644532 51.441406-34.285156 51.441406 34.285156 32.039063-71.644532 49.167969 16.390626c16.359374 5.457031 27.351562 20.703124 27.351562 37.945312zm0 0"/><path d="m424 304c0 37.839844-26.855469 70.808594-63.863281 78.375l3.199219 15.671875c44.425781-9.085937 76.664062-48.640625 76.664062-94.046875 0-31.9375-15.824219-61.695312-42.320312-79.601562l-8.953126 13.265624c22.089844 14.921876 35.273438 39.71875 35.273438 66.335938zm0 0"/><path d="m344 352c-15.65625 0-30.359375-7.664062-39.351562-20.503906l-13.113282 9.167968c11.984375 17.121094 31.601563 27.335938 52.464844 27.335938 35.289062 0 64-28.710938 64-64 0-21.296875-10.542969-41.136719-28.214844-53.070312l-8.953125 13.261718c13.257813 8.960938 21.167969 23.832032 21.167969 39.808594 0 26.472656-21.527344 48-48 48zm0 0"/></svg>