<svg height="496pt" viewBox="-15 0 495 496" width="496pt" xmlns="http://www.w3.org/2000/svg"><path d="m209.164062 328c0-12.382812-16.558593-13.945312-41.640624-16.304688-7.558594-.710937-18.136719-1.703124-23.953126-2.992187 3.304688-5.296875 10.570313-14.101563 15.328126-19.855469 16.21875-19.640625 26.007812-31.496094 17.464843-40.039062-8.535156-8.550782-20.40625 1.246094-40.039062 17.464844-5.761719 4.757812-14.558594 12.023437-19.855469 15.328124-1.289062-5.824218-2.28125-16.394531-2.992188-23.953124-2.367187-25.089844-3.929687-41.648438-16.3125-41.648438v224c12.382813 0 13.945313-16.558594 16.304688-41.640625.710938-7.558594 1.703125-18.136719 2.992188-23.953125 5.296874 3.304688 14.101562 10.570312 19.855468 15.328125 19.648438 16.21875 31.503906 26.019531 40.039063 17.464844 8.542969-8.542969-1.238281-20.398438-17.464844-40.039063-4.757813-5.761718-12.023437-14.558594-15.328125-19.855468 5.824219-1.289063 16.394531-2.28125 23.953125-2.992188 25.089844-2.367188 41.648437-3.929688 41.648437-16.3125zm0 0" fill="#f0bc5e"/><path d="m352.859375 153.640625c-.710937 7.558594-1.703125 18.136719-2.992187 23.953125-5.296876-3.304688-14.101563-10.570312-19.855469-15.328125-19.640625-16.210937-31.496094-25.992187-40.039063-17.464844-8.542968 8.542969 1.238282 20.398438 17.464844 40.039063 4.757812 5.761718 12.023438 14.558594 15.328125 19.855468-5.824219 1.289063-16.394531 2.28125-23.953125 2.992188-25.089844 2.367188-41.648438 3.929688-41.648438 16.3125s16.558594 13.945312 41.640626 16.304688c7.558593.710937 18.136718 1.703124 23.953124 2.992187-3.304687 5.296875-10.570312 14.101563-15.328124 19.855469-16.21875 19.640625-26.007813 31.496094-17.464844 40.039062 8.535156 8.535156 20.398437-1.238281 40.039062-17.464844 5.761719-4.757812 14.558594-12.023437 19.855469-15.328124 1.289063 5.824218 2.28125 16.394531 2.992187 23.953124 2.367188 25.089844 3.929688 41.648438 16.3125 41.648438v-224c-12.382812 0-13.945312 16.558594-16.304687 41.640625zm0 0" fill="#f0bc5e"/><path d="m465.828125 222.550781-12.671875-132.976562c-2.761719-28.933594-22.464844-53.230469-50.199219-61.894531l-87.410156-27.320313-162.382813-.359375-89.792968 27.679688c-27.742188 8.664062-47.445313 32.960937-50.199219 61.894531l-12.671875 132.976562 88.664062 16.128907v257.320312h288v-257.320312zm-232.664063-158.550781c28.152344 0 51.457032-20.902344 55.359376-48h16.167968c-3.992187 35.945312-34.527344 64-71.527344 64s-67.535156-28.054688-71.527343-64h16.167969c3.902343 27.097656 27.207031 48 55.359374 48zm-39.191406-48h78.382813c-3.71875 18.230469-19.878907 32-39.191407 32s-35.472656-13.769531-39.191406-32zm167.191406 464h-256v-384h-16v126.414062l-71.335937-12.964843 11.265625-118.351563c2.148438-22.503906 17.476562-41.402344 39.046875-48.144531l77.734375-24.296875c5.289062 43.511719 42.378906 77.34375 87.289062 77.34375 44.910157 0 82-33.832031 87.289063-77.34375l77.734375 24.296875c21.570312 6.734375 36.898438 25.640625 39.046875 48.144531l11.265625 118.351563-71.335938 12.964843v-126.414062h-16zm0 0"/><path d="m337.164062 336c0 4.417969-3.582031 8-8 8-4.417968 0-8-3.582031-8-8s3.582032-8 8-8c4.417969 0 8 3.582031 8 8zm0 0"/><path d="m241.164062 224c0 4.417969-3.582031 8-8 8-4.417968 0-8-3.582031-8-8s3.582032-8 8-8c4.417969 0 8 3.582031 8 8zm0 0"/><path d="m201.164062 424c0 4.417969-3.582031 8-8 8-4.417968 0-8-3.582031-8-8s3.582032-8 8-8c4.417969 0 8 3.582031 8 8zm0 0"/></svg>