<svg xmlns="http://www.w3.org/2000/svg" xmlns:xlink="http://www.w3.org/1999/xlink" width="38" height="38" viewBox="0 0 38 38"><defs><path id="ae6ua" d="M329.14 2510.277l-16.762 6.946a1.732 1.732 0 0 1-1.375 0l-16.761-6.946a1.74 1.74 0 0 1-1.084-1.612v-26.679a1.738 1.738 0 0 1 2.402-1.607l.003.001.015.006 16.112 6.678 16.113-6.678.015-.006h.003a1.738 1.738 0 0 1 2.402 1.607v26.678a1.74 1.74 0 0 1-1.084 1.612zm-19.187-20.168l-13.32-5.52v22.912l13.32 5.52zm16.795-5.52l-13.32 5.52v22.913l13.32-5.52zm-10.564 7.993l6.37-2.9a1.74 1.74 0 0 1 1.438 3.168l-6.37 2.9a1.739 1.739 0 0 1-1.438-3.168zm0 6.38l6.37-2.9a1.738 1.738 0 0 1 2.456 1.584 1.74 1.74 0 0 1-1.018 1.583l-6.37 2.9a1.739 1.739 0 0 1-1.438-3.167zm0 6.379l6.37-2.9a1.74 1.74 0 0 1 1.438 3.168l-6.37 2.9a1.739 1.739 0 0 1-1.438-3.168zm-16.076-15.816c.256 0 .5.057.719.158l6.37 2.899a1.74 1.74 0 0 1-1.438 3.168l-6.37-2.9a1.74 1.74 0 0 1 .719-3.325zm0 6.38c.256 0 .5.057.719.157l6.37 2.9a1.74 1.74 0 0 1-1.438 3.167l-6.37-2.9a1.74 1.74 0 0 1 .719-3.323zm0 6.38c.256 0 .5.056.719.156l6.37 2.9a1.74 1.74 0 0 1-1.438 3.168l-6.37-2.9a1.74 1.74 0 0 1 .719-3.324z"/></defs><g><g transform="translate(-293 -2480)"><use fill="#8c87bf" xlink:href="#ae6ua"/></g></g></svg>