<svg xmlns="http://www.w3.org/2000/svg" xmlns:xlink="http://www.w3.org/1999/xlink" width="38" height="38" viewBox="0 0 38 38"><defs><path id="w1y1a" d="M1253.936 2517.365h-33.59c-.96 0-1.737-.78-1.737-1.74v-33.639c0-.96.777-1.74 1.737-1.74h33.59c.96 0 1.737.78 1.737 1.74v33.639c0 .96-.778 1.74-1.737 1.74zm-1.738-33.638h-30.115v30.157h30.115zm-19.69 1.74a1.739 1.739 0 0 1 0 3.479h-5.212v5.22a1.739 1.739 0 0 1-3.475 0v-8.7zm-8.687 17.978c0-.961.778-1.74 1.737-1.74.96 0 1.738.779 1.738 1.74v5.22h5.212c.96 0 1.737.779 1.737 1.74 0 .96-.778 1.74-1.737 1.74h-8.687zm17.953-17.979h8.687v8.7a1.739 1.739 0 0 1-3.475 0v-5.22h-5.212c-.96 0-1.738-.779-1.738-1.74 0-.96.778-1.74 1.738-1.74zm0 23.2v-.001h5.212v-5.22c0-.961.778-1.74 1.737-1.74.96 0 1.738.779 1.738 1.74v8.7h-8.687c-.96 0-1.738-.78-1.738-1.74 0-.961.778-1.74 1.738-1.74z"/></defs><g><g transform="translate(-1218 -2480)"><use fill="#8c87bf" xlink:href="#w1y1a"/></g></g></svg>