<svg xmlns="http://www.w3.org/2000/svg" viewBox="0 0 480.035 480.035"><path d="M120.016 384.035h-48a8 8 0 0 0-8 8v80a8 8 0 0 0 8 8h48a8 8 0 0 0 8-8v-80a8 8 0 0 0-8-8zm-8 80h-32v-64h32v64zm112-160h-48a8 8 0 0 0-8 8v160a8 8 0 0 0 8 8h48a8 8 0 0 0 8-8v-160a8 8 0 0 0-8-8zm-8 160h-32v-144h32v144zm104-240h-48a8 8 0 0 0-8 8v240a8 8 0 0 0 8 8h48a8 8 0 0 0 8-8v-240a8 8 0 0 0-8-8zm-8 240h-32v-224h32v224zm104-320h-48a8 8 0 0 0-8 8v320a8 8 0 0 0 8 8h48a8 8 0 0 0 8-8v-320a8 8 0 0 0-8-8zm-8 320h-32v-304h32v304z"/><path d="M477.016 33.787l-40-32a8 8 0 0 0-10 0l-40 32a8 8 0 0 0 5 14.248h32v64h-88a8 8 0 0 0-8 8v72h-88a8 8 0 0 0-8 8v72h-32v-56c-.026-22.08-17.92-39.974-40-40h-32v-28.688l65.656-65.656c9.753-9.754 9.752-25.568-.002-35.321a25.152 25.152 0 0 0-1.886-1.703c-10.335-7.962-24.993-6.931-34.112 2.4l-33.6 33.6a31.986 31.986 0 0 0-5.696-7.48c18.326-12.336 23.183-37.192 10.847-55.519C116.887-.658 92.031-5.515 73.704 6.821S50.521 44.013 62.857 62.34a39.992 39.992 0 0 0 11.087 11.007 33.905 33.905 0 0 0-9.928 24.048v86.64a39.831 39.831 0 0 0 16 31.792v136.208h-80v16h144a8 8 0 0 0 8-8v-72h88a8 8 0 0 0 8-8v-72h88a8 8 0 0 0 8-8v-72h88a8 8 0 0 0 8-8v-72h32a8 8 0 0 0 5-14.248zm-405 6.248c0-13.255 10.745-24 24-24s24 10.745 24 24-10.745 24-24 24-24-10.745-24-24zm40 312h-16v-128.8a39.95 39.95 0 0 0 8 .8h8v128zm2.344-213.656a8 8 0 0 0-2.344 5.656v64h-8c-13.255 0-24-10.745-24-24v-86.64c-.268-8.851 6.324-16.415 15.128-17.36h.872c8.837 0 16 7.163 16 16a8 8 0 0 0 13.656 5.656l43.312-43.312a9.6 9.6 0 0 1 12.672-1.32 8.969 8.969 0 0 1 .704 13.32l-68 68zm37.656 133.656h-8a8 8 0 0 0-8 8v72h-8v-128h24v48zm32 0h-16v-56a8 8 0 0 0-8-8h-32v-16h32c13.255 0 24 10.745 24 24v56zm230.792-240l17.208-13.76 17.192 13.76h-34.4z"/><path d="M336.016.035h16v16h-16zm-16 16h16v16h-16zm32 0h16v16h-16zm-16 16h16v16h-16zm-88 16h16v16h-16zm-16 16h16v16h-16zm32 0h16v16h-16zm-16 16h16v16h-16z"/></svg>