<svg xmlns="http://www.w3.org/2000/svg" viewBox="0 0 480 480"><path d="M432 152c-13.255 0-24 10.745-24 24s10.745 24 24 24 24-10.745 24-24-10.745-24-24-24zm0 32a8 8 0 1 1 0-16 8 8 0 0 1 0 16z"/><path d="M472 0h-32a8.004 8.004 0 0 0-5.68 2.32l-120 120a8 8 0 0 0-.046 11.314l.046.046 18.4 18.32L308 176.72 240 192l-68-15.12L147.28 152l18.4-18.32a8 8 0 0 0 .046-11.314l-.046-.046-120-120A8.003 8.003 0 0 0 40 0H8a8 8 0 0 0-8 8v272a8 8 0 0 0 4.96 7.36c.95.448 1.991.667 3.04.64a8.004 8.004 0 0 0 5.68-2.32L32 267.28l26.32 26.4 60.32 60.24c-8.214 15.355-5.314 34.288 7.12 46.48l67.84 67.92A40 40 0 0 0 221.92 480 39.356 39.356 0 0 0 248 470a29.684 29.684 0 0 0 18.32 6.56 27.12 27.12 0 0 0 17.2-6 28.24 28.24 0 0 0 10.32-20.32v-1.68a29.28 29.28 0 0 0 20.08-8 27.837 27.837 0 0 0 8-19.76 27.201 27.201 0 0 0 20.08-8 28.002 28.002 0 0 0 8-20.08h2a28.159 28.159 0 0 0 20.32-10.24c8.564-11.128 7.855-26.811-1.68-37.12l50.88-50.88 26.48-27.2 18.32 18.4A8.004 8.004 0 0 0 472 288a6.719 6.719 0 0 0 3.04-.64A8 8 0 0 0 480 280V8a8 8 0 0 0-8-8zM16 260.72V16h20.72l112 112L16 260.72zM43.28 256L136 163.28 156.72 184 64 276.72 43.28 256zm32 32l95.28-95.2L224 204.64l-85.68 85.68a8 8 0 0 0-.046 11.314l.046.046a57.203 57.203 0 0 0 25.04 14.56 29.923 29.923 0 0 0-18.64 8.64l-16 16L75.28 288zM130 372.08a24.003 24.003 0 0 1 7.04-16.96L156.08 336a13.682 13.682 0 0 1 9.68-4.08 11.44 11.44 0 0 1 7.12 2.4 12.323 12.323 0 0 1 4.48 8.72 12.08 12.08 0 0 1-3.52 8.96c-.34.376-.611.81-.8 1.28l-36.48 34.8a24.002 24.002 0 0 1-6.56-16zM147.76 400l38.96-37.28c5.217-3.942 12.642-2.907 16.584 2.31a11.84 11.84 0 0 1-.104 14.41v-.16l-38.8 37.12-16.64-16.4zM192 444.48l-16-16.8 36.8-35.12.96-.64c4.703-4.636 12.257-4.636 16.96 0a11.84 11.84 0 0 1 1.28 14.32l-40 38.24zm46.88 12.72c-9.571 8.954-24.477 8.849-33.92-.24l-1.2-.96 35.12-33.76a8.002 8.002 0 0 0 2.8-1.76 11.6 11.6 0 0 1 9.12-3.52 11.92 11.92 0 0 1 8.72 4.4 12.8 12.8 0 0 1-1.68 16.88l-18.96 18.96zm34.992.902c-.116.102-.233.201-.352.298v-.24a12.24 12.24 0 0 1-13.76.56l9.44-9.44a30.085 30.085 0 0 0 5.76-8c4.345 4.946 3.858 12.477-1.088 16.822zM360 371.52a11.92 11.92 0 0 1-8.8 4.4 11.28 11.28 0 0 1-9.04-3.44c-.408-.32-.835-.614-1.28-.88l-39.28-41.12-11.52 11.04 41.84 43.84c4.045 5.138 3.16 12.582-1.977 16.627a11.84 11.84 0 0 1-15.383-.627l-44.96-46.72-11.52 11.04L302 411.44s0 .56.56.8a12 12 0 0 1 3.52 8.48 12.161 12.161 0 0 1-3.52 8.48 12.4 12.4 0 0 1-16.96 0 8 8 0 0 0-8-1.92 26.639 26.639 0 0 0-5.84-16 28.24 28.24 0 0 0-20.32-10.32h-1.68a27.916 27.916 0 0 0-8-20.08 28.796 28.796 0 0 0-20.08-8 27.758 27.758 0 0 0-8-19.76 29.044 29.044 0 0 0-20.08-8 13.6 13.6 0 0 0 0-1.76 28.159 28.159 0 0 0-10.24-20.32 26.486 26.486 0 0 0-6.88-3.84 50.796 50.796 0 0 0 37.68-14.72l26.64-28.32a73.84 73.84 0 0 0 55.2 16L339.52 336l18.96 18.96a12.88 12.88 0 0 1 1.52 16.56zm0-38.48l-46.32-46.96 2.32-.88 1.28-.8 8-6-9.6-12.8-7.36 5.6c-21.387 8.999-46.109 3.877-62.16-12.88a8 8 0 0 0-11.52 0l-32 33.84A33.6 33.6 0 0 1 176 302.24a40.004 40.004 0 0 1-20.48-6.8l88-88 65.44-14.48L404.72 288 360 333.04zm56-56L323.28 184 344 163.28 436.72 256 416 277.04zm48-16l-10.32-10.4-104-104-18.4-18.64 112-112H464v245.04z"/><path d="M48 152c-13.255 0-24 10.745-24 24s10.745 24 24 24 24-10.745 24-24-10.745-24-24-24zm0 32a8 8 0 1 1 0-16 8 8 0 0 1 0 16zm24 184H56c0 30.928 25.072 56 56 56v-16c-22.091 0-40-17.909-40-40z"/><path d="M32 368H16c0 53.019 42.981 96 96 96v-16c-44.183 0-80-35.817-80-80zm368 0c0 22.091-17.909 40-40 40v16c30.928 0 56-25.072 56-56h-16z"/><path d="M440 368c0 44.183-35.817 80-80 80v16c53.019 0 96-42.981 96-96h-16z"/></svg>