<svg xmlns="http://www.w3.org/2000/svg" viewBox="0 0 480.639 480.639"><circle cx="96.212" cy="176.114" r="8"/><circle cx="376.212" cy="176.114" r="8"/><path d="M168.212 32.114h144v16h-144zm0 32h32v16h-32zm48 0h96v16h-96z"/><path d="M312.212.114h-144c-17.673 0-32 14.327-32 32v48c.011 14.583 9.88 27.314 24 30.96v17.04a8 8 0 0 0 4.08 6.96 7.996 7.996 0 0 0 3.92 1.04 7.993 7.993 0 0 0 4.08-1.12l3.92-2.32v11.44c0 17.673 14.327 32 32 32h21.76l38.16 22.88a7.993 7.993 0 0 0 4.08 1.12 7.996 7.996 0 0 0 3.92-1.04 8 8 0 0 0 4.08-6.96v-16h8c17.673 0 32-14.327 32-32v-16a31.519 31.519 0 0 0-4.64-16c16.349-1.726 28.731-15.56 28.64-32v-48c0-17.674-14.327-32-32-32zm-8 144c0 8.837-7.163 16-16 16h-16a8 8 0 0 0-8 8v9.84l-27.92-16.72a7.993 7.993 0 0 0-4.08-1.12h-24c-8.837 0-16-7.163-16-16v-21.04l18.24-10.96h77.76c8.837 0 16 7.163 16 16v16zm24-64c0 8.837-7.163 16-16 16h-104a7.993 7.993 0 0 0-4.08 1.12l-27.92 16.72v-9.84a8 8 0 0 0-8-8c-8.837 0-16-7.163-16-16v-48c0-8.837 7.163-16 16-16h144c8.837 0 16 7.163 16 16v48z"/><path d="M208.212 128.114h48v16h-48zm64 0h16v16h-16z"/><path d="M475.209 464.526l-.037-.013-42.96-14.16v-26.24h16c17.673 0 32-14.327 32-32v-112c0-13.255-10.745-24-24-24a23.282 23.282 0 0 0-10.48 2.56 40.002 40.002 0 0 0-21.52-23.04 48.002 48.002 0 0 0 16-35.52v-40c0-26.51-21.49-48-48-48h-44c-11.046.025-19.98 9-19.955 20.045a20 20 0 0 0 13.635 18.915l-13.68 46.88a8.003 8.003 0 0 0 1.28 6.96 8.002 8.002 0 0 0 6.4 3.2h8.64a47.444 47.444 0 0 0 15.68 27.44 40 40 0 0 0-24 36.56v16h-116.48l20-53.2-15.04-5.6-22 58.8h-58.48v-16a40 40 0 0 0-24-36.56 47.435 47.435 0 0 0 15.36-27.44h8.64a8.002 8.002 0 0 0 6.4-3.2 8.003 8.003 0 0 0 1.28-6.96l-15.68-54.32a39.517 39.517 0 0 0 8-23.52 8 8 0 0 0-8-8h-64c-17.673 0-32 14.327-32 32v56a48.002 48.002 0 0 0 16 35.52 40 40 0 0 0-21.36 23.04 23.279 23.279 0 0 0-10.64-2.56c-13.255 0-24 10.745-24 24v112c0 17.673 14.327 32 32 32h16v26.24l-42.56 14.16a8.21 8.21 0 0 0-5.24 10.36 8.21 8.21 0 0 0 10.36 5.24l45.44-15.6 45.44 15.6c.85.11 1.71.11 2.56 0a8.001 8.001 0 0 0 7.6-5.44 8 8 0 0 0-5.003-10.148l-.037-.013-42.56-14.16v-26.24h24c13.255-.037 23.97-10.813 23.932-24.067a24.033 24.033 0 0 0-1.372-7.933h17.44v80a8 8 0 0 0 8 8h208a8 8 0 0 0 8-8v-80h17.44c-4.418 12.497 2.131 26.209 14.627 30.627a24.008 24.008 0 0 0 7.933 1.373h24v26.24l-42.56 14.16a8.02 8.02 0 0 0 5.12 15.2l45.44-15.2 45.44 15.6c.85.11 1.71.11 2.56 0a8 8 0 0 0 8-5.44 8 8 0 0 0-5.003-10.146zm-52.117-312.412a32.711 32.711 0 0 1 1.12 8v1.52l-8-9.52h6.88zm-78.88-20a4 4 0 0 1 4-4h44a31.998 31.998 0 0 1 20.96 8h-64.96a4 4 0 0 1-4-4zm8 60h-5.36l11.36-40h37.6l28.4 34.88v13.12c0 17.673-14.327 32-32 32-17.673 0-32-14.327-32-32a8 8 0 0 0-8-8zm0 79.999c0-13.255 10.745-24 24-24h8v72h16v-72h8c13.255 0 24 10.745 24 24v64h-80v-64zm-208 32h192v16h-192v-16zm-88-159.999c0-8.837 7.163-16 16-16h54.64a24.002 24.002 0 0 1-22.64 16h-32a8.002 8.002 0 0 0-6.4 3.2l-9.6 12.8v-16zm0 42.64l20-26.64h28a39.196 39.196 0 0 0 18.8-4.96l10.56 36.96h-5.36a8 8 0 0 0-8 8c0 17.673-14.327 32-32 32s-32-14.327-32-32v-13.36zm-8 85.359c0-13.255 10.745-24 24-24h8v72h16v-72h8c13.255 0 24 10.745 24 24v64h-80v-64zm40 136h-56c-8.837 0-16-7.163-16-16v-112a8 8 0 0 1 16 0v64a48.004 48.004 0 0 0 12.32 32h-4.32a8 8 0 0 0 0 16h48a8 8 0 0 1 0 16zm56 56v-80a8 8 0 0 0-8-8h-56c-14.583-.011-27.314-9.88-30.96-24h94.96c13.255 0 24 10.745 24 24v72a7.998 7.998 0 0 0 1.36 4.4l8 11.6h-33.36zm88 0h-35.68l-12.32-18.4v-69.6c0-22.091-17.909-40-40-40h88v128zm64-18.4l-12.32 18.4h-35.68v-128h88c-22.091 0-40 17.909-40 40v69.6zm48-69.6a8 8 0 0 0-8 8v80h-33.04l8-11.6a7.993 7.993 0 0 0 1.04-4.4v-72c0-13.255 10.745-24 24-24h94.96c-3.646 14.12-16.377 23.989-30.96 24h-56zm48 32a8 8 0 0 1 0-16h48a8 8 0 0 0 0-16h-4.32a47.999 47.999 0 0 0 12.32-32v-64a8 8 0 0 1 16 0v112c0 8.837-7.163 16-16 16h-56z"/></svg>