<svg version="1" xmlns="http://www.w3.org/2000/svg" width="346.667" height="346.667" viewBox="0 0 260.000000 260.000000"><path d="M32.9 19.7c-.2 1.2.8 15.4 1.6 23.3.2 1.9.6 6.9 1 11 .3 4.1.8 9.5 1.1 12 .2 2.5.6 7 .8 10 .8 10 1.7 19.4 2.1 23.5.3 2.2.7 6.9 1 10.5.3 3.6.7 8.7 1 11.5.3 2.7.7 7.5 1 10.5.2 3 .7 8.4 1.1 12 .3 3.6.7 8.5.9 11 .1 2.5.6 7.3.9 10.8 1.4 14.4 1.8 18.9 2.1 22.7 1.8 21.6 2.6 29.9 2.8 30.1.2.1 46.1 13 51.2 14.4 1.7.4 8.8 2.4 15.9 4.4 7.9 2.2 13.8 3.3 15 2.9 1.2-.4 2.6-.8 3.1-.9.6-.1 10-2.8 21-5.9 11-3.1 27.2-7.7 36-10.1 8.8-2.5 16.3-4.8 16.7-5.2.8-.8 1.6-7.5 2.3-18.7.3-4.4.7-9.4.9-11 .2-1.7.7-6.4 1.1-10.5.3-4.1.8-9.5 1-12 1.3-12.6 2.2-23 3-33 .8-9.7 1.5-18 2-23 .2-2.5.7-7.7 1.1-11.5.3-3.9.7-8.6.9-10.5 1.1-10.7 1.9-20 1.9-23.7.1-2.4.3-4.3.6-4.3s.5-1.9.6-4.3c0-2.3.4-7.6.7-11.8.4-4.2 1-10.3 1.3-13.5.3-3.3.7-7.1.9-8.7l.3-2.7h-97.4c-53.6 0-97.5.3-97.5.7zm157.5 46c-.1 7.3-1 17.2-1.6 17.8-.2.2-21.3.6-46.9.7-35 .2-46.3.6-46.2 1.5.3 1.5 1.5 17 1.6 20.5l.1 2.8h16.5c9.1.1 29.3.1 44.7 0h28.2l-.4 5.3c-.1 2.8-.5 7.5-.8 10.3-.4 2.9-.8 7.8-1.1 11-.2 3.3-.7 8.6-1 11.9-1 9.9-1.3 13.7-2 21-1 11.7-1.5 15.8-1.8 16.1-.1.1-3.6 1.1-7.7 2.3-16.5 4.4-33.7 9.1-37.3 10.2-2 .7-4.3 1.2-5 1.2-2-.1-49.1-13.4-49.9-14.1-.3-.4-.9-5.2-1.3-10.7-.3-5.5-.7-11.8-.9-14-.2-2.2-.5-6-.7-8.5l-.4-4.5 12.3-.2 12.2-.2.1 2.7c.1 1.5.2 4 .4 5.7.1 1.6.3 4.3.4 6 .1 1.6.5 3.5.9 4.2.4.6 6.7 2.7 13.9 4.7l13.2 3.4 8.8-2.4c4.8-1.4 9.3-2.7 9.8-2.8.6-.2 2.7-.6 4.8-1.1 2.4-.5 3.7-1.3 3.8-2.4 0-.9.2-2.5.5-3.6.4-2.1 1.5-16.5 1.8-22.8l.1-3.8-42.2-.1H75l-.1-2.6c0-1.5-.2-4.1-.4-5.7-.1-1.7-.5-6.6-.9-11s-.9-9.8-1.1-12c-.2-2.2-.7-7.2-1-11-.3-3.9-.7-8.8-1-11-.2-2.2-.7-7.7-1.1-12.2l-.6-8.2 3.4-.3c1.8-.2 29.2-.2 60.8-.1l57.5.2-.1 5.8z"/></svg>