<svg xmlns="http://www.w3.org/2000/svg" viewBox="0 0 480.071 480.071"><path d="M417.756 344.035c8.894-9.75 8.2-24.864-1.55-33.758a23.9 23.9 0 0 0-16.21-6.242h-20c-6.627 0-12-5.373-12-12v-12c-.026-22.08-17.92-39.974-40-40a8 8 0 0 0-8 8v60.472a8 8 0 0 1-5.472 7.592l-2.528.84v-4.904a8 8 0 0 0-8-8h-32a8 8 0 0 0-8 8v96a8 8 0 0 0 8 8h32a8 8 0 0 0 8-8v-1.72a79.607 79.607 0 0 0 37.808 9.72h50.192c13.197.058 23.943-10.593 24.002-23.79a23.89 23.89 0 0 0-6.242-16.21c8.324-9.042 8.324-22.957 0-32zm-121.76 56h-16v-80h16v80zm112-40a8 8 0 0 1-8 8v16a8 8 0 0 1 0 16h-50.192a63.843 63.843 0 0 1-35.504-10.752l-2.304-1.528v-53.952l7.592-2.528a24.001 24.001 0 0 0 16.408-22.768v-51.104a24.047 24.047 0 0 1 16 22.632v12c0 15.464 12.536 28 28 28h20a8 8 0 0 1 0 16v16a8 8 0 0 1 8 8z"/><path d="M400.503 220.291a135.944 135.944 0 0 0-56.507-12.256 135.722 135.722 0 0 0-108.336 54.128l-35.664-11.888v-29.672c.696-.544 1.416-1.032 2.104-1.6a127.068 127.068 0 0 0 45.512-90.968h.384a8 8 0 0 0 8-8v-8c0-61.856-50.144-112-112-112s-112 50.144-112 112v16a8 8 0 0 0 8 8c.328-.031.654-.081.976-.152a127.278 127.278 0 0 0 44.92 83.12c.68.568 1.408 1.056 2.104 1.6v29.672l-66.528 22.176a8 8 0 0 0-5.44 6.92l-16 192a7.999 7.999 0 0 0 7.968 8.664h272a8.001 8.001 0 0 0 8-8.664l-.312-3.704c68.311 31.154 148.943 1.033 180.098-67.278s1.032-148.944-67.279-180.098zM87.996 464.035H16.692l14.84-178.08 56.464-18.816v196.896zm-40-352c0-53.019 42.981-96 96-96s96 42.981 96 96h-24c-22.08-.026-39.974-17.92-40-40a8 8 0 0 0-9.736-7.816l-4.8 1.072a343.997 343.997 0 0 0-113.464 47.6v-.856zm136 352h-80V317.803l28.352-9.448-20.072 73.6a7.998 7.998 0 0 0 .56 5.68l24 48a8 8 0 0 0 14.312 0l24-48a7.998 7.998 0 0 0 .56-5.68l-20.072-73.6 28.36 9.448v146.232zm-80-163.104v-15.952l19.144 9.6-19.144 6.352zm40 25.504l15.48 56.76-15.48 30.952-15.48-30.952 15.48-56.76zm40-25.504l-19.144-6.4 19.144-9.552v15.952zm0-33.84l-40 20-40-20v-36.416a90.679 90.679 0 0 0 40 9.36 90.679 90.679 0 0 0 40-9.36v36.416zM96.14 206.707a111.265 111.265 0 0 1-39.776-80.112A327.999 327.999 0 0 1 160.86 81.843c4.79 26.705 28.005 46.154 55.136 46.192h15.616a111.117 111.117 0 0 1-39.752 78.672c-27.722 23.11-67.998 23.11-95.72 0zm103.856 257.328V267.139l26.456 8.8c-36.697 62.888-17.085 143.537 44.392 182.552l.456 5.544h-71.304zm144 0c-66.274 0-120-53.726-120-120s53.726-120 120-120 120 53.726 120 120c-.075 66.244-53.757 119.925-120 120zm-72-448h16v16h-16zm32 0h16v16h-16z"/><path d="M335.996 176.035h16v16h-16zm0-32h16v16h-16zm0-32h16v16h-16zm0-32h16v16h-16zm0-32h16v16h-16zm0-32h16v16h-16zm-96 0h16v16h-16z"/></svg>