<svg xmlns="http://www.w3.org/2000/svg" viewBox="0 0 480 480"><path d="M400 160H144a8 8 0 0 0-8 8v56H80a8 8 0 0 0-8 8v128a8 8 0 0 0 8 8h192a8 8 0 0 0 8-8v-56h120a8 8 0 0 0 8-8V168a8 8 0 0 0-8-8zM136 352H88v-48h48v48zm0-64H88v-48h48v48zm64 64h-48v-48h48v48zm0-64h-48v-48h48v48zm0-64h-48v-48h48v48zm64 128h-48v-48h48v48zm0-64h-48v-48h48v48zm0-64h-48v-48h48v48zm64 64h-48v-48h48v48zm0-64h-48v-48h48v48zm64 64h-48v-48h48v48zm0-64h-48v-48h48v48z"/><path d="M432 24h-64V8a8 8 0 0 0-16 0v16h-64V8a8 8 0 0 0-16 0v16h-64V8a8 8 0 0 0-16 0v16h-64V8a8 8 0 0 0-16 0v16H48a8 8 0 0 0-8 8v440a8 8 0 0 0 8 8h384a8 8 0 0 0 8-8V32a8 8 0 0 0-8-8zm-8 440H56v-16h368v16zm0-32H56v-16h312a8.004 8.004 0 0 0 5.68-2.32l50.32-50.4V432zm-48-43.28V352h36.72L376 388.72zM424 336h-56a8 8 0 0 0-8 8v56H56V128h368v208zm0-224H56V40h56v16a8 8 0 0 0 16 0V40h64v16a8 8 0 0 0 16 0V40h64v16a8 8 0 0 0 16 0V40h64v16a8 8 0 0 0 16 0V40h56v72z"/><path d="M296 320h24v24h-24zM96 184h24v24H96z"/></svg>