<svg xmlns="http://www.w3.org/2000/svg" viewBox="0 0 480 480"><path d="M432.437 331.493a31.478 31.478 0 0 0-3.493-3.493c13.255-11.326 14.819-31.252 3.493-44.507a31.478 31.478 0 0 0-3.493-3.493c13.33-11.489 14.823-31.609 3.334-44.939A31.867 31.867 0 0 0 408 224H264v-77.2A106.913 106.913 0 0 0 219.32 60c-7.759-5.549-18.547-3.758-24.096 4A17.275 17.275 0 0 0 192 74.024v128a55.832 55.832 0 0 1-20.144 43l-12.048 10.04A7.913 7.913 0 0 0 152 248h-24a8 8 0 0 0-8-8H8a8 8 0 0 0-8 8v224a8 8 0 0 0 8 8h112a8 8 0 0 0 8-8h24a7.887 7.887 0 0 0 7.656-6.312l25.336 5.064A64.204 64.204 0 0 0 197.544 472h117.24a64.376 64.376 0 0 0 28.624-6.752L410.4 431.76c17.496-1.188 30.716-16.335 29.528-33.83A31.751 31.751 0 0 0 428.944 376c13.255-11.326 14.819-31.252 3.493-44.507zM112 464H16V256h96v208zm32-8h-16V264h16v192zm192.248-5.064A48.22 48.22 0 0 1 314.784 456h-117.24c-3.161 0-6.315-.31-9.416-.928L160 449.44V275.744l22.104-18.416A71.779 71.779 0 0 0 208 202.032v-128A1.271 1.271 0 0 1 210.016 73 90.872 90.872 0 0 1 248 146.8V232a8.001 8.001 0 0 0 4.8 7.328c-8.301 13.23-5.638 30.548 6.256 40.672-13.255 11.326-14.819 31.252-3.493 44.507a31.478 31.478 0 0 0 3.493 3.493c-13.255 11.326-14.819 31.252-3.493 44.507a31.478 31.478 0 0 0 3.493 3.493c-13.33 11.489-14.823 31.609-3.334 44.939A31.867 31.867 0 0 0 280 432h94.112l-37.864 18.936zM408 416H280c-8.837 0-16-7.163-16-16s7.163-16 16-16h128c8.837 0 16 7.163 16 16s-7.163 16-16 16zm0-48H280c-8.837 0-16-7.163-16-16s7.163-16 16-16h128c8.837 0 16 7.163 16 16s-7.163 16-16 16zm0-48H280c-8.837 0-16-7.163-16-16s7.163-16 16-16h128c8.837 0 16 7.163 16 16s-7.163 16-16 16zm0-48H280c-8.837 0-16-7.163-16-16s7.163-16 16-16h128c8.837 0 16 7.163 16 16s-7.163 16-16 16zm64-240c-13.255 0-24-10.745-24-24a8 8 0 0 0-16 0c0 13.255-10.745 24-24 24a8 8 0 0 0 0 16c13.255 0 24 10.745 24 24a8 8 0 0 0 16 0c0-13.255 10.745-24 24-24a8 8 0 0 0 0-16zm-32 16a40.479 40.479 0 0 0-8-8 40.479 40.479 0 0 0 8-8 40.479 40.479 0 0 0 8 8 40.479 40.479 0 0 0-8 8z"/><path d="M368 120c-13.255 0-24-10.745-24-24a8 8 0 0 0-16 0c0 13.255-10.745 24-24 24a8 8 0 0 0 0 16c13.255 0 24 10.745 24 24a8 8 0 0 0 16 0c0-13.255 10.745-24 24-24a8 8 0 0 0 0-16zm-32 16a40.479 40.479 0 0 0-8-8 40.479 40.479 0 0 0 8-8 40.479 40.479 0 0 0 8 8 40.479 40.479 0 0 0-8 8zM112 16h16v16h-16zm-32 0h16v16H80zm-32 0h16v16H48zm24 88c-13.255 0-24-10.745-24-24a8 8 0 0 0-16 0c0 13.255-10.745 24-24 24a8 8 0 0 0 0 16c13.255 0 24 10.745 24 24a8 8 0 0 0 16 0c0-13.255 10.745-24 24-24a8 8 0 0 0 0-16zm-32 16a40.479 40.479 0 0 0-8-8 40.479 40.479 0 0 0 8-8 40.479 40.479 0 0 0 8 8 40.479 40.479 0 0 0-8 8zm392 72h16v16h-16zm32 0h16v16h-16zm-64 0h16v16h-16zM336 0h16v16h-16zm-32 0h16v16h-16zm-32 0h16v16h-16zM72 168h16v16H72zm64 0h16v16h-16zm-32 0h16v16h-16z"/></svg>