<svg xmlns="http://www.w3.org/2000/svg" viewBox="0 0 480.031 480.031"><path d="M264.728 224.016l-24.264-2.2c-30.976-2.816-54.984-39.304-56.472-46.192a8.191 8.191 0 0 0-8-7.88 7.792 7.792 0 0 0-8 7.464v.424c-1.488 6.88-25.488 43.384-56.472 46.192l-24.248 2.192a8 8 0 0 0-7.272 8v15.336c.084 61.98 36.298 118.221 92.688 143.944a8 8 0 0 0 6.624 0c56.39-25.723 92.604-81.964 92.688-143.944v-15.336a8 8 0 0 0-7.272-8zM256 247.32c-.049 54.413-31.094 104.044-80 127.896-48.896-23.847-79.938-73.463-80-127.864v-8.032l16.992-1.536c27.304-2.488 51.144-25.064 63.008-43.056 11.864 17.992 35.704 40.568 63.008 43.056L256 239.32v8z"/><path d="M416.554 293.688A95.956 95.956 0 0 0 384 288.016a95.377 95.377 0 0 0-32 5.6v-237.6a8 8 0 0 0-8-8H239.432C235.419 20.48 211.826.05 184 .016h-16c-27.826.035-51.419 20.465-55.432 48H8a8 8 0 0 0-8 8v416a8 8 0 0 0 8 8h336a7.896 7.896 0 0 0 7.552-5.768c49.86 17.95 104.831-7.919 122.781-57.779 17.95-49.861-7.919-104.832-57.779-122.781zM280 64.016h56V301a96.403 96.403 0 0 0-16 11.656V88.016a8 8 0 0 0-8-8h-32v-16zm-192 0h32a8 8 0 0 0 8-8c.026-22.08 17.92-39.974 40-40h16c22.08.026 39.974 17.92 40 40a8 8 0 0 0 8 8h32v32H88v-32zm-8 48h192a8 8 0 0 0 8-8v-8h24v235.048c-20.19 30.317-21.361 69.484-3.016 100.952H48v-336h24v8a8 8 0 0 0 8 8zm-64 352v-400h56v16H40a8 8 0 0 0-8 8v352a8 8 0 0 0 8 8h272c.192 0 .36-.096.544-.112a96.624 96.624 0 0 0 18.504 16.112H16zm368 0c-44.183 0-80-35.817-80-80s35.817-80 80-80 80 35.817 80 80c-.053 44.16-35.839 79.947-80 80z"/><path d="M440 352.016h-24v-24a8 8 0 0 0-8-8h-48a8 8 0 0 0-8 8v24h-24a8 8 0 0 0-8 8v48a8 8 0 0 0 8 8h24v24a8 8 0 0 0 8 8h48a8 8 0 0 0 8-8v-24h24a8 8 0 0 0 8-8v-48a8 8 0 0 0-8-8zm-8 48h-24a8 8 0 0 0-8 8v24h-32v-24a8 8 0 0 0-8-8h-24v-32h24a8 8 0 0 0 8-8v-24h32v24a8 8 0 0 0 8 8h24v32zm-208-152a102.735 102.735 0 0 1-52 89.088l8.424 13.6c36.806-21.099 59.528-60.263 59.576-102.688h-16z"/></svg>