<svg xmlns="http://www.w3.org/2000/svg" viewBox="0 0 480 480"><path d="M478.4 67.2l-24-32a8.288 8.288 0 0 0-12.8 0l-24 32A7.998 7.998 0 0 0 416 72v376c0 17.673 14.327 32 32 32 17.673 0 32-14.327 32-32V72a7.998 7.998 0 0 0-1.6-4.8zM464 448c0 8.837-7.163 16-16 16s-16-7.163-16-16v-16h32v16zm0-32h-32v-16h32v16zm0-32h-32V96h32v288zm0-304h-32v-5.336l16-21.328 16 21.328V80zM392.032 0H40a8 8 0 0 0-8 8v136.8C13.389 148.628.024 164.999 0 184v256c.026 22.08 17.92 39.974 40 40h288a8.038 8.038 0 0 0 5.656-2.344l64-64a7.998 7.998 0 0 0 1.6-2.344c.112-.248.176-.488.264-.744.23-.672.37-1.371.416-2.08 0-.168.096-.32.096-.488V8a8 8 0 0 0-8-8zM240 440c0 13.255-10.745 24-24 24H40c-13.255 0-24-10.745-24-24V184c0-13.255 10.745-24 24-24h176c13.255 0 24 10.745 24 24v256zM136 96v48H80V96h56zM80 80V48h56v32H80zm128 16v48h-56V96h56zm-56-16V48h56v32h-56zm72 64.8V96h56v112h-24v-24c-.024-19.001-13.389-35.372-32-39.2zm0-64.8V48h56v32h-56zm112 372.688V416h36.688L336 452.688zM384 400h-56a8 8 0 0 0-8 8v56h-72.208A39.583 39.583 0 0 0 256 440V224h104a8 8 0 0 0 8-8V40a8 8 0 0 0-8-8H72a8 8 0 0 0-8 8v104H48V16h336v384zM352 96v112h-56V96h56zm-56-16V48h56v32h-56z"/><path d="M216 184H40a8 8 0 0 0-8 8v48a8 8 0 0 0 8 8h176a8 8 0 0 0 8-8v-48a8 8 0 0 0-8-8zm-8 48H48v-32h160v32zm16 96h-48a8 8 0 0 0-8 8v96a8 8 0 0 0 8 8h48a8 8 0 0 0 8-8v-96a8 8 0 0 0-8-8zm-8 96h-32v-80h32v80zm8-160h-48a8 8 0 0 0-8 8v32a8 8 0 0 0 8 8h48a8 8 0 0 0 8-8v-32a8 8 0 0 0-8-8zm-8 32h-32v-16h32v16zm-64 32h-48a8 8 0 0 0-8 8v32a8 8 0 0 0 8 8h48a8 8 0 0 0 8-8v-32a8 8 0 0 0-8-8zm-8 32h-32v-16h32v16zm8-96h-48a8 8 0 0 0-8 8v32a8 8 0 0 0 8 8h48a8 8 0 0 0 8-8v-32a8 8 0 0 0-8-8zm-8 32h-32v-16h32v16zm-64 32H32a8 8 0 0 0-8 8v32a8 8 0 0 0 8 8h48a8 8 0 0 0 8-8v-32a8 8 0 0 0-8-8zm-8 32H40v-16h32v16zm8-96H32a8 8 0 0 0-8 8v32a8 8 0 0 0 8 8h48a8 8 0 0 0 8-8v-32a8 8 0 0 0-8-8zm-8 32H40v-16h32v16zm80 96h-48a8 8 0 0 0-8 8v32a8 8 0 0 0 8 8h48a8 8 0 0 0 8-8v-32a8 8 0 0 0-8-8zm-8 32h-32v-16h32v16zm-64-32H32a8 8 0 0 0-8 8v32a8 8 0 0 0 8 8h48a8 8 0 0 0 8-8v-32a8 8 0 0 0-8-8zm-8 32H40v-16h32v16z"/></svg>