<svg xmlns="http://www.w3.org/2000/svg" viewBox="0 0 480.8 480.8"><path d="M32 432.4h96v16H32z"/><path d="M461.6 130.8c-20.8-20.8-52-24.8-77.6-10.4V8.4c0-4.8-3.2-8-8-8H8c-4.8 0-8 3.2-8 8v464c0 4.8 3.2 8 8 8h368c4.8 0 8-3.2 8-8V299.6l77.6-77.6c25.6-24.8 25.6-66.4 0-91.2zM368 464.4H16v-448h352v116.8L146.4 354.8c-1.6 1.6-2.4 3.2-2.4 5.6v80c0 4.8 3.2 8 8 8h80c2.4 0 4-.8 5.6-2.4L368 315.6v148.8zM168 355.6l68.8 68.8-8 8H160v-68.8l8-8zm202.4-64.8L248 413.2l-68.8-68.8L352 171.6l20.8 20.8-46.4 46.4c-9.6 9.6-9.6 25.6 0 35.2 9.6 9.6 25.6 9.6 35.2 0l46.4-46.4 12.8 12.8-50.4 50.4zm13.6-87.2l12.8 12.8-46.4 46.4c-3.2 3.2-8.8 3.2-12.8 0s-3.2-8.8 0-12.8l46.4-46.4zm66.4 7.2L432 229.2l-68.8-68.8 18.4-18.4c19.2-19.2 49.6-19.2 68.8 0 19.2 19.2 19.2 49.6 0 68.8z"/><path d="M112 48.4h160v16H112zm-56 48h80v16H56zm96 0h176v16H152zm-96 32h64v16H56zm80 0h80v16h-80zm96 0h96v16h-96zm-176 32h232v16H56zm0 32h48v16H56zm64 0h144v16H120zm-64 32h136v16H56z"/></svg>