<svg xmlns="http://www.w3.org/2000/svg" viewBox="0 0 480.003 480.003"><path d="M344.001 0h-304a8 8 0 0 0-8 8v24h-24a8 8 0 0 0-8 8v432a8 8 0 0 0 8 8h304a8 8 0 0 0 8-8v-24h24a8 8 0 0 0 8-8V8a8 8 0 0 0-8-8zm-40 464h-288V48h288v416zm32-32h-16V40a8 8 0 0 0-8-8h-264V16h288v416zm112-399.2V8a8 8 0 0 0-8-8h-64a8 8 0 0 0-8 8v416c0 1.58.467 3.125 1.344 4.44l32 48a8 8 0 0 0 13.312 0l32-48a8.002 8.002 0 0 0 1.344-4.44V49.472a24 24 0 0 1 16 22.528v80h16V72c-.021-19.002-13.387-35.375-32-39.2zm-16 388.8l-24 36-24-36V224h48v197.6zm0-213.6h-48V16h48v192z"/><path d="M80.001 72h160v16h-160zm0 64h48v16h-48zm64 0h88v16h-88zm-96 32h64v16h-64zm80 0h80v16h-80zm-80 32h224v16h-224zm0 32h48v16h-48zm64 0h160v16h-160zm-64 32h224v16h-224zm200-128h24v16h-24zm-24 32h48v16h-48zm-48 264h96v16h-96zm-96-136h128v16h-128zm-32 32h224v16h-224zm0 32h48v16h-48zm64 0h160v16h-160zm112-64h48v16h-48z"/></svg>