<svg xmlns="http://www.w3.org/2000/svg" viewBox="0 0 480.003 480.003"><path d="M472.001 256.003h-18.216l25.16-44a8 8 0 0 0-.8-9.088l-40-48a8.001 8.001 0 0 0-5.784-2.912 8.25 8.25 0 0 0-6.016 2.336l-22.032 22.032c-11.659 1.813-20.271 11.833-20.312 23.632v16a8 8 0 0 0 8 8h32a8 8 0 0 0 8-8v-16a23.895 23.895 0 0 0-9.6-19.08l9.064-9.064 30.832 37-26.936 47.144h-59.36v-160a8 8 0 0 0-8-8h-48.88a50.951 50.951 0 0 0-47.12-24 50.951 50.951 0 0 0-47.12 24h-48.88a8 8 0 0 0-8 8v160h-40v-16h8a8 8 0 0 0 8-8v-32a8 8 0 0 0-8-8h-8v-24a8 8 0 0 0-8-8h-80a8 8 0 0 0-8 8v32a8 8 0 0 0 8 8h8v16h-8a8 8 0 0 0-8 8v24h-24a8 8 0 0 0-8 8v32a8 8 0 0 0 8 8h24v168a8 8 0 0 0 8 8h400a8 8 0 0 0 8-8v-168h24a8 8 0 0 0 8-8v-32a8 8 0 0 0-8-8zm-56-48h-16v-8a8 8 0 0 1 16 0v8zm-90.648-104h34.648v152h-16v-45.6c.043-21.376-15.881-39.418-37.096-42.032a55.54 55.54 0 0 0 21.096-40.368 100.814 100.814 0 0 0-2.648-24zm-75 117.656l16 16a8 8 0 0 0 11.312 0l16-16a8.001 8.001 0 0 0 1.776-8.632l-11.624-29.024h17.784c14.58 0 26.4 11.82 26.4 26.4v45.6h-112v-45.6c0-14.58 11.82-26.4 26.4-26.4h17.784l-11.608 29.024a8.001 8.001 0 0 0 1.776 8.632zm15.041-7.584l6.608-16.536 6.608 16.536-6.608 6.616-6.608-6.616zm46.232-81.76c-3.208 19.584-27.344 35.688-39.624 35.688a50.402 50.402 0 0 1-38.888-32.416c13.696-1.128 38.4-5.28 49.92-20.432l28.592 17.16zm-39.625-52.312c22.704 0 35.2 10.736 38.776 33.136l-26.656-16a8 8 0 0 0-11.704 4.328c-4.048 12.144-25.904 16.736-40 18.072 2.168-26.808 14.785-39.536 39.584-39.536zm-88 24h34.648a100.917 100.917 0 0 0-2.648 24 55.537 55.537 0 0 0 21.096 40.392c-21.206 2.613-37.127 20.641-37.096 42.008v45.6h-16v-152zm-56 104v16h-64v-16h64zm-79.999-32h64v16h-64v-16zm0 64h64v16h-64v-16zm383.999 224h-384v-160h384v160zm32-176h-448v-16h448v16zm-359.999-256H98.81L61.002 1.755a8 8 0 0 0-10 0L13.194 32.003H8.002a8 8 0 0 0-8 8v64a8 8 0 0 0 8 8h96a8 8 0 0 0 8-8v-64a8 8 0 0 0-8-8zm-48-13.752l17.192 13.752h-34.4l17.208-13.752zm40 77.752h-80v-48h80v48z"/></svg>