<svg xmlns="http://www.w3.org/2000/svg" viewBox="0 0 480 480"><path d="M352 0H56a8 8 0 0 0-8 8v40H8a8 8 0 0 0-8 8v416a8 8 0 0 0 8 8h296a8 8 0 0 0 8-8v-32h40a8 8 0 0 0 8-8V8a8 8 0 0 0-8-8zm-56 464H16V64h200v72a8 8 0 0 0 8 8h72v320zm-64-336V75.28L284.72 128H232zm112 296h-32V136a8.004 8.004 0 0 0-2.32-5.68L291.28 112H312V96h-36.72l-24-24H264V56h-28.72l-5.6-5.68A8.004 8.004 0 0 0 224 48H64V16h280v408zm128-304h-16c0-17.673-14.327-32-32-32-17.673 0-32 14.327-32 32v312c0 1.436.387 2.845 1.12 4.08l24 40a8 8 0 0 0 13.76 0l24-40A7.993 7.993 0 0 0 456 432V136h8v144h16V128a8 8 0 0 0-8-8zm-48 336.48L414.16 440h19.68L424 456.48zM440 424h-32V280h32v144zm0-160h-32V136h32v128zm-32-144c0-8.837 7.163-16 16-16s16 7.163 16 16h-32z"/><path d="M56 352h200v16H56zm0 40h120v16H56zm48-80h152v16H104zm-48 0h32v16H56zm176-40v-72h-16v72h-16v-56h-16v56h-16v-80h-16v80h-16v-56h-16v56h-16v-24H88v24H72v-80H56v88a8 8 0 0 0 8 8h192v-16h-24zM56 104h104v16H56zm0 40h72v16H56zm224-88h32v16h-32zm-88 336h32v16h-32z"/></svg>