<svg xmlns="http://www.w3.org/2000/svg" viewBox="0 0 43.417 43.417">
  <g>
    <path d="M12.408 10.884H.625a.625.625 0 0 0-.625.625v27.918c0 .345.28.625.625.625h11.783c.345 0 .625-.28.625-.625V11.509a.625.625 0 0 0-.625-.625zm-.625 27.918H1.25V12.134h10.533v26.668zM37.202 11.884a.644.644 0 0 0-.752-.464l-8.721 2.081a.617.617 0 0 0-.18.083V3.312a.625.625 0 0 0-.625-.625H15.14a.625.625 0 0 0-.625.625v36.115c0 .345.28.625.625.625h11.783c.345 0 .625-.28.625-.625V15.438l5.915 24.811a.629.629 0 0 0 .753.464l8.722-2.081a.627.627 0 0 0 .462-.754l-6.198-25.994zM26.298 38.802H15.765V3.937h10.533v34.865zm8.236.549l-5.908-24.78 7.504-1.788 5.908 24.778-7.504 1.79z"/>
    <path d="M6.516 29.89a4.044 4.044 0 0 0 4.04-4.039 4.044 4.044 0 0 0-4.04-4.041 4.044 4.044 0 0 0-4.039 4.041 4.044 4.044 0 0 0 4.039 4.039zm0-6.83a2.793 2.793 0 0 1 2.79 2.791c0 1.538-1.252 2.789-2.79 2.789s-2.789-1.251-2.789-2.789a2.793 2.793 0 0 1 2.789-2.791zM3.102 38.259h6.83c.345 0 .625-.28.625-.625v-2.562a.625.625 0 0 0-.625-.625h-6.83a.625.625 0 0 0-.625.625v2.562c0 .345.28.625.625.625zm.625-2.563h5.58v1.312h-5.58v-1.312zM3.102 18.024h6.83c.345 0 .625-.28.625-.625v-2.56a.625.625 0 0 0-.625-.625h-6.83a.625.625 0 0 0-.625.625v2.56c0 .345.28.625.625.625zm.625-2.56h5.58v1.31h-5.58v-1.31zM21.032 27.073c2.227 0 4.04-1.812 4.04-4.039s-1.812-4.039-4.04-4.039-4.04 1.812-4.04 4.039 1.812 4.039 4.04 4.039zm0-6.828c1.538 0 2.79 1.251 2.79 2.789s-1.252 2.789-2.79 2.789-2.79-1.251-2.79-2.789 1.251-2.789 2.79-2.789zM17.617 38.259h6.829c.345 0 .625-.28.625-.625v-2.562a.625.625 0 0 0-.625-.625h-6.829a.625.625 0 0 0-.625.625v2.562c0 .345.28.625.625.625zm.625-2.563h5.579v1.312h-5.579v-1.312zM17.617 9.06h6.829c.345 0 .625-.28.625-.625V5.874a.625.625 0 0 0-.625-.625h-6.829a.625.625 0 0 0-.625.625v2.561c0 .344.28.625.625.625zm.625-2.561h5.579V7.81h-5.579V6.499zM34.673 23.299a2.835 2.835 0 0 0-1.763 1.277 2.826 2.826 0 0 0-.345 2.149 2.833 2.833 0 0 0 3.428 2.106 2.845 2.845 0 0 0 2.105-3.424 2.88 2.88 0 0 0-2.779-2.185 2.811 2.811 0 0 0-.646.077zm2.21 2.399c.099.412.03.839-.193 1.201a1.591 1.591 0 0 1-1.356.761c-.73 0-1.383-.516-1.553-1.226a1.58 1.58 0 0 1 .194-1.205 1.584 1.584 0 0 1 1.358-.758c.74.001 1.377.505 1.55 1.227zM34.406 35.061a.63.63 0 0 0-.076.474l.595 2.492a.629.629 0 0 0 .754.463l5.064-1.211a.624.624 0 0 0 .462-.752l-.595-2.492a.633.633 0 0 0-.753-.462l-5.065 1.208a.613.613 0 0 0-.386.28zm5.134-.128l.305 1.276-3.849.919-.305-1.276 3.849-.919zM35.166 14.139l-5.065 1.208a.62.62 0 0 0-.387.28.634.634 0 0 0-.076.474l.595 2.492a.623.623 0 0 0 .753.462l5.065-1.209a.624.624 0 0 0 .462-.752l-.594-2.492a.635.635 0 0 0-.753-.463zm-3.863 3.555l-.305-1.276 3.849-.917.305 1.276-3.849.917z"/>
  </g>
</svg>
