<?xml version="1.0"?>
<svg xmlns="http://www.w3.org/2000/svg" height="512px" viewBox="-31 0 512 512" width="512px"><path d="m256.820312 378.820312c-8.5 8.5-19.800781 13.179688-31.820312 13.179688s-23.320312-4.679688-31.820312-13.179688c-5.855469-5.859374-15.355469-5.859374-21.210938 0-5.859375 5.859376-5.859375 15.355469 0 21.210938 14.164062 14.167969 33 21.96875 53.03125 21.96875s38.867188-7.800781 53.03125-21.96875c5.859375-5.855469 5.859375-15.351562 0-21.210938-5.855469-5.859374-15.351562-5.859374-21.210938 0zm0 0" fill="#FFFFFF"/><path d="m60 392h6.238281c19.632813 69.179688 83.375 120 158.761719 120s139.128906-50.820312 158.761719-120h6.238281c33.085938 0 60-26.914062 60-60 0-11.472656-3.242188-22.203125-8.851562-31.328125 5.214843-2.347656 8.851562-7.582031 8.851562-13.671875v-60c0-8.285156-6.714844-15-15-15h-15.695312c-5.230469-58.613281-40.625-108.957031-89.304688-133.96875v-3.03125c0-24.8125-20.1875-45-45-45h-15c0-16.542969-13.457031-30-30-30h-30c-16.542969 0-30 13.457031-30 30h-15c-24.8125 0-45 20.1875-45 45v3.03125c-48.660156 25-84.070312 75.332031-89.304688 133.96875h-15.695312c-8.285156 0-15 6.714844-15 15v60c0 6.089844 3.636719 11.324219 8.851562 13.671875-5.609374 9.125-8.851562 19.855469-8.851562 31.328125 0 33.085938 26.914062 60 60 60zm0-30c-16.542969 0-30-13.457031-30-30s13.457031-30 30-30v45c0 5.058594.242188 10.058594.6875 15zm165 120c-74.4375 0-135-60.5625-135-135v-45h270v45c0 74.4375-60.5625 135-135 135zm165-120h-.6875c.445312-4.941406.6875-9.941406.6875-15v-45c16.542969 0 30 13.457031 30 30s-13.457031 30-30 30zm-270-249.113281v22.113281c0 8.285156 6.714844 15 15 15s15-6.714844 15-15c0-20.0625 0-37.902344 0-60 0-8.269531 6.730469-15 15-15h15v45c0 8.285156 6.714844 15 15 15s15-6.714844 15-15v-75h30v75c0 8.285156 6.714844 15 15 15s15-6.714844 15-15v-45h15c8.269531 0 15 6.730469 15 15v60c0 8.285156 6.714844 15 15 15s15-6.714844 15-15v-22.113281c32.589844 22.273437 54.695312 59.003906 59.164062 99.113281h-328.328124c4.46875-40.109375 26.574218-76.839844 59.164062-99.113281zm-90 129.113281h390v30c-19.503906 0-380.582031 0-390 0zm0 0" fill="#FFFFFF"/></svg>
