<?xml version="1.0" encoding="iso-8859-1"?>
<!-- Generator: Adobe Illustrator 19.0.0, SVG Export Plug-In . SVG Version: 6.00 Build 0)  -->
<svg xmlns="http://www.w3.org/2000/svg" xmlns:xlink="http://www.w3.org/1999/xlink" version="1.1" id="Capa_1" x="0px" y="0px" viewBox="0 0 512 512" style="enable-background:new 0 0 512 512;" xml:space="preserve" width="512px" height="512px">
<g>
	<g>
		<path d="M256,6C152.336,6,68,89.336,68,193h30c0-87.122,70.878-157,158-157s158,69.878,158,157h30C444,89.336,359.664,6,256,6z" fill="#FFFFFF"/>
	</g>
</g>
<g>
	<g>
		<path d="M400.597,193C387.484,138.013,337.945,97,279,97h-46c-58.945,0-108.484,41.013-121.597,96H98v138h19.439    c20.213,53.683,70.767,92.62,130.656,95.788c-13.272,2.671-24.179,11.934-29.166,24.212H133c-19.299,0-35-15.701-35-35v-85H68v85    c0,35.841,29.159,65,65,65h85.929c5.947,14.643,20.318,25,37.071,25c22.056,0,40-17.944,40-40    c0-19.35-13.812-35.532-32.095-39.212c59.889-3.168,110.443-42.105,130.656-95.788H414V193H400.597z M266,466    c0,5.514-4.486,10-10,10c-2.724,0-5.195-1.098-7-2.871V458.87c1.805-1.773,4.276-2.871,7-2.871C261.514,456,266,460.486,266,466z     M256,363c-26.978,0-52.341-10.506-71.418-29.583l21.213-21.213C219.206,325.615,237.035,333,256,333    c18.965,0,36.794-7.385,50.205-20.795l21.213,21.213C308.341,352.494,282.978,363,256,363z" fill="#FFFFFF"/>
	</g>
</g>
<g>
	<g>
		<path d="M444,193.025v137.949c37.586-0.539,68-31.263,68-68.975C512,224.287,481.586,193.564,444,193.025z" fill="#FFFFFF"/>
	</g>
</g>
<g>
	<g>
		<path d="M0,262c0,37.712,30.414,68.436,68,68.975v-137.95C30.414,193.564,0,224.288,0,262z" fill="#FFFFFF"/>
	</g>
</g>
<g>
</g>
<g>
</g>
<g>
</g>
<g>
</g>
<g>
</g>
<g>
</g>
<g>
</g>
<g>
</g>
<g>
</g>
<g>
</g>
<g>
</g>
<g>
</g>
<g>
</g>
<g>
</g>
<g>
</g>
</svg>
