<?xml version="1.0" encoding="iso-8859-1"?>
<!-- Generator: Adobe Illustrator 19.0.0, SVG Export Plug-In . SVG Version: 6.00 Build 0)  -->
<svg version="1.1" id="Capa_1" xmlns="http://www.w3.org/2000/svg" xmlns:xlink="http://www.w3.org/1999/xlink" x="0px" y="0px"
	 viewBox="0 0 512 512" style="enable-background:new 0 0 512 512;" xml:space="preserve">
<path style="fill:#656D78;" d="M128,408c26.48,0,48,21.52,48,48s-21.52,48-48,48s-48-21.52-48-48S101.52,408,128,408z M144,456
	c0-8.8-7.2-16-16-16s-16,7.2-16,16s7.2,16,16,16S144,464.8,144,456z"/>
<g>
	<path style="fill:#CCD1D9;" d="M128,440c8.8,0,16,7.2,16,16s-7.2,16-16,16s-16-7.2-16-16S119.2,440,128,440z"/>
	<path style="fill:#CCD1D9;" d="M392,440c8.8,0,16,7.2,16,16s-7.2,16-16,16s-16-7.2-16-16S383.2,440,392,440z"/>
</g>
<path style="fill:#656D78;" d="M344,456c0-26.48,21.52-48,48-48s48,21.52,48,48s-21.52,48-48,48S344,482.48,344,456z M408,456
	c0-8.8-7.2-16-16-16s-16,7.2-16,16s7.2,16,16,16S408,464.8,408,456z"/>
<path style="fill:#FFCE54;" d="M504,424v32h-64c0-26.48-21.52-48-48-48s-48,21.52-48,48H176c0-26.48-21.52-48-48-48s-48,21.52-48,48
	l-56,0.16V424H8V320h32h120h48h120v-96h40v72c0,17.68,14.32,32,32,32h96v56v40H504z"/>
<path style="fill:#5D9CEC;" d="M448,224l48,104h-96c-17.68,0-32-14.32-32-32v-72H448z"/>
<polygon style="fill:#F6BB42;" points="496,424 496,384 496,328 464,328 464,384 464,456 504,456 504,424 "/>
<polygon style="fill:#4A89DC;" points="496,328 448,224 416,224 464,328 "/>
<polygon style="fill:#ED5565;" points="352,128 352,160 328,142.88 184,40 40,142.88 16,160 16,128 184,8 "/>
<g>
	<rect x="240" y="184" style="fill:#5D9CEC;" width="56" height="56"/>
	<path style="fill:#5D9CEC;" d="M184,112c13.28,0,24,10.72,24,24s-10.72,24-24,24s-24-10.72-24-24S170.72,112,184,112z"/>
</g>
<rect x="160" y="224" style="fill:#ED5565;" width="48" height="96"/>
<rect x="72" y="184" style="fill:#5D9CEC;" width="56" height="56"/>
<path style="fill:#E6E9ED;" d="M328,224v96H208v-96h-48v96H40V142.88L184,40l144,102.88V224z M296,240v-56h-56v56H296z M208,136
	c0-13.28-10.72-24-24-24s-24,10.72-24,24s10.72,24,24,24S208,149.28,208,136z M128,240v-56H72v56H128z"/>
<polygon style="fill:#CCD1D9;" points="296,120.024 296,168.8 296,184 296,240 296,320 328,320 328,224 328,142.88 "/>
<polygon style="fill:#DA4453;" points="320,137.168 328,142.88 352,160 352,128 320,105.144 "/>
<path d="M328,368c-4.424,0-8-3.576-8-8V224c0-4.424,3.576-8,8-8s8,3.576,8,8v136C336,364.424,332.424,368,328,368z"/>
<path d="M504,432h-23.832c-4.424,0-8-3.576-8-8s3.576-8,8-8H504c4.424,0,8,3.576,8,8S508.424,432,504,432z"/>
<path d="M504,464c-4.424,0-8-3.576-8-8v-32c0-4.424,3.576-8,8-8s8,3.576,8,8v32C512,460.424,508.424,464,504,464z"/>
<path d="M24,464.168c-4.408,0-7.984-3.56-8-7.976c-0.016-4.424,3.552-8.008,7.976-8.024l56-0.168c0.008,0,0.016,0,0.024,0
	c4.408,0,7.984,3.56,8,7.976c0.016,4.424-3.552,8.008-7.976,8.024l-56,0.168C24.016,464.168,24.008,464.168,24,464.168z"/>
<path d="M496,392h-8c-4.424,0-8-3.576-8-8s3.576-8,8-8h8c4.424,0,8,3.576,8,8S500.424,392,496,392z"/>
<path d="M496,432c-4.424,0-8-3.576-8-8v-96c0-4.424,3.576-8,8-8s8,3.576,8,8v96C504,428.424,500.424,432,496,432z"/>
<path d="M448,232H328c-4.424,0-8-3.576-8-8s3.576-8,8-8h120c4.424,0,8,3.576,8,8S452.424,232,448,232z"/>
<path d="M496.008,336c-3.024,0-5.92-1.72-7.272-4.648l-48-104c-1.848-4.008-0.104-8.768,3.912-10.616
	c4.024-1.848,8.768-0.104,10.616,3.912l48,104c1.848,4.008,0.104,8.768-3.912,10.616C498.264,335.768,497.128,336,496.008,336z"/>
<path d="M24,464.504c-4.424,0-8-3.576-8-8V424c0-4.424,3.576-8,8-8s8,3.576,8,8v32.504C32,460.92,28.424,464.504,24,464.504z"/>
<path d="M8,432c-4.424,0-8-3.576-8-8V320c0-4.424,3.576-8,8-8s8,3.576,8,8v104C16,428.424,12.424,432,8,432z"/>
<path d="M328,328H8c-4.424,0-8-3.576-8-8s3.576-8,8-8h320c4.424,0,8,3.576,8,8S332.424,328,328,328z"/>
<path d="M48,432H8c-4.424,0-8-3.576-8-8s3.576-8,8-8h40c4.424,0,8,3.576,8,8S52.424,432,48,432z"/>
<path d="M128,512c-30.872,0-56-25.128-56-56s25.128-56,56-56s56,25.128,56,56S158.872,512,128,512z M128,416
	c-22.056,0-40,17.944-40,40s17.944,40,40,40s40-17.944,40-40S150.056,416,128,416z"/>
<path d="M128,480c-13.232,0-24-10.768-24-24s10.768-24,24-24s24,10.768,24,24S141.232,480,128,480z M128,448c-4.416,0-8,3.584-8,8
	s3.584,8,8,8c4.416,0,8-3.584,8-8S132.416,448,128,448z"/>
<path d="M392,480c-13.232,0-24-10.768-24-24s10.768-24,24-24s24,10.768,24,24S405.232,480,392,480z M392,448c-4.416,0-8,3.584-8,8
	s3.584,8,8,8s8-3.584,8-8S396.416,448,392,448z"/>
<path d="M392,512c-30.872,0-56-25.128-56-56s25.128-56,56-56s56,25.128,56,56S422.872,512,392,512z M392,416
	c-22.056,0-40,17.944-40,40s17.944,40,40,40s40-17.944,40-40S414.056,416,392,416z"/>
<path d="M344.2,464H176c-4.424,0-8-3.576-8-8s3.576-8,8-8h168.2c4.424,0,8,3.576,8,8S348.624,464,344.2,464z"/>
<path d="M504,464h-64c-4.424,0-8-3.576-8-8s3.576-8,8-8h64c4.424,0,8,3.576,8,8S508.424,464,504,464z"/>
<path d="M496,336h-96c-4.424,0-8-3.576-8-8s3.576-8,8-8h96c4.424,0,8,3.576,8,8S500.424,336,496,336z"/>
<path d="M400,336c-22.056,0-40-17.944-40-40c0-4.424,3.576-8,8-8s8,3.576,8,8c0,13.232,10.768,24,24,24c4.424,0,8,3.576,8,8
	S404.424,336,400,336z"/>
<path d="M368,304c-4.424,0-8-3.576-8-8v-72c0-4.424,3.576-8,8-8s8,3.576,8,8v72C376,300.424,372.424,304,368,304z"/>
<path d="M352,168c-4.424,0-8-3.576-8-8v-32c0-4.424,3.576-8,8-8s8,3.576,8,8v32C360,164.424,356.424,168,352,168z"/>
<path d="M40,328c-4.424,0-8-3.576-8-8V142.856c0-4.424,3.576-8,8-8s8,3.576,8,8V320C48,324.424,44.424,328,40,328z"/>
<path d="M328,328c-4.424,0-8-3.576-8-8V142.856c0-4.424,3.576-8,8-8s8,3.576,8,8V320C336,324.424,332.424,328,328,328z"/>
<path d="M351.992,136c-1.608,0-3.232-0.488-4.64-1.496L184,17.832L20.648,134.504c-3.584,2.576-8.584,1.736-11.16-1.856
	s-1.736-8.592,1.856-11.16l168-120c2.784-1.984,6.512-1.984,9.296,0l168,120c3.592,2.56,4.432,7.56,1.856,11.16
	C356.944,134.832,354.496,136,351.992,136z"/>
<path d="M351.992,168c-1.608,0-3.232-0.488-4.64-1.496L184,49.832L20.648,166.504c-3.584,2.568-8.584,1.736-11.16-1.856
	s-1.736-8.592,1.856-11.16l168-120c2.784-1.984,6.512-1.984,9.296,0l168,120c3.592,2.56,4.432,7.56,1.856,11.16
	C356.944,166.832,354.496,168,351.992,168z"/>
<path d="M16,168c-4.424,0-8-3.576-8-8v-32c0-4.424,3.576-8,8-8s8,3.576,8,8v32C24,164.424,20.424,168,16,168z"/>
<path d="M208,328c-4.424,0-8-3.576-8-8v-96c0-4.424,3.576-8,8-8s8,3.576,8,8v96C216,324.424,212.424,328,208,328z"/>
<path d="M208,232h-48c-4.424,0-8-3.576-8-8s3.576-8,8-8h48c4.424,0,8,3.576,8,8S212.424,232,208,232z"/>
<path d="M160,328c-4.424,0-8-3.576-8-8v-96c0-4.424,3.576-8,8-8s8,3.576,8,8v96C168,324.424,164.424,328,160,328z"/>
<path d="M128,248H72c-4.424,0-8-3.576-8-8v-56c0-4.424,3.576-8,8-8h56c4.424,0,8,3.576,8,8v56C136,244.424,132.424,248,128,248z
	 M80,232h40v-40H80V232z"/>
<path d="M296,248h-56c-4.424,0-8-3.576-8-8v-56c0-4.424,3.576-8,8-8h56c4.424,0,8,3.576,8,8v56C304,244.424,300.424,248,296,248z
	 M248,232h40v-40h-40V232z"/>
<path d="M184,168c-17.648,0-32-14.352-32-32s14.352-32,32-32s32,14.352,32,32S201.648,168,184,168z M184,120
	c-8.824,0-16,7.176-16,16s7.176,16,16,16s16-7.176,16-16S192.824,120,184,120z"/>
<g>
</g>
<g>
</g>
<g>
</g>
<g>
</g>
<g>
</g>
<g>
</g>
<g>
</g>
<g>
</g>
<g>
</g>
<g>
</g>
<g>
</g>
<g>
</g>
<g>
</g>
<g>
</g>
<g>
</g>
</svg>
